<svg xmlns="http://www.w3.org/2000/svg" width="190" height="108" viewBox="0 0 190 108" fill="none"><path d="M82.1833 6.5571C79.4509 4.04986 76.4407 1.86166 73.2165 0.0150146L70.2139 3.01769C73.5468 4.82681 76.6396 7.01876 79.4208 9.57104C85.2385 14.9121 89.2358 21.4204 91.135 28.4691C91.6417 26.2321 92.3248 24.0402 93.1768 21.9083C90.7559 16.2407 87.0439 11.0273 82.1795 6.56461" fill="#7A9A01"></path><path d="M115.761 0C112.525 1.85415 109.508 4.04611 106.768 6.5571C97.5458 15.0209 92.4676 26.1871 92.4676 37.9951C92.4676 58.4209 92.4563 61.3597 92.4563 61.3897H96.5399C96.5399 61.3635 96.5512 58.4509 96.5512 37.9951C96.5512 27.3431 101.16 17.2466 109.53 9.56728C112.315 7.01125 115.419 4.81554 118.764 3.00268L115.761 0Z" fill="#7A9A01"></path><path d="M59.7683 8.7002C71.2836 12.8777 79.5597 24.4155 79.5597 37.9951C79.5597 51.5747 71.2836 63.1125 59.7683 67.29C75.4686 66.7307 88.0273 53.8304 88.0273 37.9951C88.0273 22.1597 75.4723 9.25569 59.7683 8.7002Z" fill="#0033A0"></path><path d="M129.209 8.7002C117.694 12.8777 109.418 24.4155 109.418 37.9951C109.418 51.5747 117.694 63.1125 129.209 67.29C113.509 66.7307 100.954 53.8304 100.954 37.9951C100.954 22.1597 113.509 9.25569 129.209 8.7002Z" fill="#0033A0"></path><path d="M90.3618 9.18823C90.3618 5.97912 92.2573 3.37805 94.5993 3.37805C96.9414 3.37805 98.8369 5.97912 98.8369 9.18823C98.8369 12.3973 96.9377 14.9984 94.5993 14.9984C92.261 14.9984 90.3618 12.3973 90.3618 9.18823Z" fill="#7A9A01"></path><path d="M12.4499 93.905C12.1533 94.0514 11.793 94.179 11.3764 94.2953C10.956 94.4079 10.4869 94.513 9.96889 94.6031C9.45093 94.6932 8.91045 94.742 8.34369 94.742C7.13886 94.742 6.02788 94.5693 5.00697 94.2278C3.98605 93.8862 3.10402 93.3645 2.36461 92.6626C1.6252 91.9608 1.04718 91.105 0.626808 90.0916C0.206433 89.0782 0 87.9222 0 86.6273C0 85.3323 0.210187 84.1763 0.626808 83.1629C1.04718 82.1495 1.63271 81.2937 2.38713 80.5919C3.14155 79.89 4.04611 79.357 5.09704 78.9929C6.14798 78.6289 7.30777 78.4449 8.57264 78.4449C9.57854 78.4449 10.4981 78.5463 11.3276 78.7527C12.1571 78.9592 12.8927 79.2069 13.5346 79.4959C13.4107 79.7098 13.3131 79.9988 13.2381 80.3667C13.163 80.7307 13.0992 81.0385 13.0541 81.2825L12.9153 81.3275C12.7614 81.1436 12.5512 80.9372 12.2734 80.7082C11.9995 80.4793 11.6804 80.2578 11.3126 80.0439C10.9485 79.8299 10.5356 79.6535 10.0777 79.5072C9.61983 79.3645 9.11688 79.2894 8.56889 79.2894C7.66809 79.2894 6.83485 79.4358 6.06541 79.7248C5.29597 80.0138 4.62412 80.4605 4.05362 81.061C3.48311 81.6616 3.03646 82.4235 2.71742 83.3468C2.39839 84.2701 2.23699 85.3624 2.23699 86.6273C2.23699 87.8921 2.39839 88.9881 2.71742 89.9077C3.03646 90.8272 3.48311 91.5929 4.05362 92.1935C4.62412 92.7977 5.29597 93.2406 6.06541 93.5297C6.83485 93.8187 7.66809 93.965 8.56889 93.965C9.11688 93.965 9.62358 93.8975 10.089 93.7586C10.5544 93.6197 10.9823 93.4583 11.3689 93.2669C11.7592 93.0755 12.1083 92.8691 12.4198 92.6514C12.7314 92.4299 12.9941 92.2348 13.208 92.0696L13.2981 92.1597L13.0917 93.5071C12.9528 93.631 12.7389 93.7624 12.4386 93.9087L12.4499 93.905Z" fill="#0033A0"></path><path d="M16.2708 81.6954C16.2333 80.727 16.192 79.7399 16.147 78.734C16.3459 78.764 16.5373 78.7903 16.7175 78.8128C16.9014 78.8354 17.0816 78.8466 17.2655 78.8466C17.4494 78.8466 17.6295 78.8354 17.8135 78.8128C17.9974 78.7903 18.185 78.764 18.384 78.734C18.3389 79.7399 18.2976 80.727 18.2601 81.6954C18.2226 82.6638 18.2038 83.6509 18.2038 84.6568C18.2038 86.5785 18.2113 88.2412 18.2263 89.6525C18.2413 91.0638 18.2564 92.3249 18.2714 93.4359C19.3523 93.4359 20.3883 93.4246 21.3829 93.4021C22.3738 93.3796 23.4397 93.2932 24.5845 93.1394C24.5094 93.4134 24.4719 93.6423 24.4719 93.8262C24.4719 93.9951 24.5094 94.2016 24.5845 94.4418C23.8826 94.4117 23.1807 94.3967 22.4826 94.3967H18.2639C17.5845 94.3967 16.8789 94.4117 16.1507 94.4418C16.1958 93.4959 16.2371 92.5351 16.2746 91.5592C16.3121 90.5833 16.3309 89.5924 16.3309 88.5865V84.653C16.3309 83.6471 16.3121 82.66 16.2746 81.6916L16.2708 81.6954Z" fill="#0033A0"></path><path d="M27.497 81.6954C27.4595 80.727 27.4182 79.7399 27.3731 78.734C27.5721 78.764 27.7635 78.7903 27.9436 78.8128C28.1276 78.8354 28.3077 78.8466 28.4916 78.8466C28.6755 78.8466 28.8557 78.8354 29.0396 78.8128C29.2235 78.7903 29.4112 78.764 29.6101 78.734C29.5651 79.7399 29.5238 80.727 29.4863 81.6954C29.4487 82.6638 29.43 83.6509 29.43 84.6568V88.5903C29.43 89.5962 29.4487 90.5871 29.4863 91.563C29.5238 92.5388 29.5651 93.4997 29.6101 94.4455C29.2611 94.4155 28.8857 94.4005 28.4916 94.4005C28.0975 94.4005 27.7222 94.4155 27.3694 94.4455C27.4144 93.4997 27.4557 92.5388 27.4932 91.563C27.5308 90.5871 27.5495 89.5962 27.5495 88.5903V84.6568C27.5495 83.6509 27.5308 82.6638 27.4932 81.6954H27.497Z" fill="#0033A0"></path><path d="M40.9527 88.5115C38.9709 86.3833 36.9891 84.2702 35.0074 82.1683C34.9924 82.5962 34.9774 83.1667 34.9623 83.8836C34.9473 84.6005 34.9398 85.5763 34.9398 86.8112C34.9398 87.1302 34.9398 87.5281 34.9511 88.001C34.9586 88.4739 34.9661 88.9694 34.9736 89.4873C34.9811 90.0053 34.9924 90.5308 35.0074 91.0637C35.0224 91.5967 35.0374 92.0922 35.0524 92.5501C35.0674 93.008 35.0824 93.4096 35.0975 93.7511C35.1125 94.0927 35.1275 94.3254 35.1425 94.4493C34.8985 94.4192 34.632 94.4042 34.343 94.4042C34.039 94.4042 33.7575 94.4192 33.4985 94.4493C33.5286 94.2954 33.5623 94.0139 33.5999 93.6047C33.6374 93.1919 33.6712 92.7002 33.7012 92.1297C33.7312 91.5592 33.765 90.9361 33.8026 90.268C33.8401 89.5962 33.8701 88.9281 33.8926 88.2562C33.9152 87.5844 33.9339 86.9313 33.9489 86.2895C33.9639 85.6476 33.9715 85.0771 33.9715 84.5742C33.9715 83.1104 33.9677 81.853 33.9602 80.8021C33.9527 79.7511 33.9339 78.9667 33.9039 78.4487H34.268C35.1988 79.4546 36.1934 80.5318 37.2519 81.6841C38.3103 82.8364 39.3613 83.9699 40.4084 85.0921C41.4519 86.2106 42.4428 87.2728 43.3811 88.2712C44.3194 89.2696 45.1377 90.1179 45.8395 90.8198V87.7082C45.8395 86.1093 45.8283 84.5479 45.8058 83.0316C45.7832 81.5152 45.7344 80.0852 45.6556 78.7452C45.9596 78.8203 46.2186 78.8578 46.4326 78.8578C46.6165 78.8578 46.8605 78.8203 47.1645 78.7452C47.1344 79.0793 47.1007 79.5822 47.0631 80.2541C47.0256 80.9259 46.9881 81.6428 46.9505 82.4048C46.913 83.1667 46.8792 83.9136 46.8492 84.6455C46.8192 85.3774 46.8042 85.9629 46.8042 86.4058V87.7758C46.8042 88.2938 46.8041 88.8342 46.8154 89.401C46.8229 89.964 46.8304 90.5345 46.8379 91.105C46.8454 91.6755 46.8529 92.2122 46.8605 92.7039C46.868 93.1994 46.8717 93.631 46.8717 93.9951V94.7495H46.5527C44.7999 92.7227 42.9307 90.6471 40.9527 88.519V88.5115Z" fill="#0033A0"></path><path d="M51.207 81.6954C51.1694 80.727 51.1281 79.7399 51.0831 78.734C51.282 78.764 51.4734 78.7903 51.6536 78.8128C51.8375 78.8354 52.0177 78.8466 52.2016 78.8466C52.3855 78.8466 52.5657 78.8354 52.7496 78.8128C52.9335 78.7903 53.1212 78.764 53.3201 78.734C53.2751 79.7399 53.2338 80.727 53.1962 81.6954C53.1587 82.6638 53.1399 83.6509 53.1399 84.6568V88.5903C53.1399 89.5962 53.1587 90.5871 53.1962 91.563C53.2338 92.5388 53.2751 93.4997 53.3201 94.4455C52.971 94.4155 52.5957 94.4005 52.2016 94.4005C51.8075 94.4005 51.4322 94.4155 51.0793 94.4455C51.1244 93.4997 51.1657 92.5388 51.2032 91.563C51.2407 90.5871 51.2595 89.5962 51.2595 88.5903V84.6568C51.2595 83.6509 51.2407 82.6638 51.2032 81.6954H51.207Z" fill="#0033A0"></path><path d="M68.4911 93.905C68.1946 94.0514 67.8343 94.179 67.4177 94.2953C66.9973 94.4079 66.5281 94.513 66.0101 94.6031C65.4922 94.6932 64.9517 94.742 64.3849 94.742C63.1801 94.742 62.0691 94.5693 61.0482 94.2278C60.0273 93.8862 59.1453 93.3645 58.4059 92.6626C57.6665 91.9608 57.0884 91.105 56.6681 90.0916C56.2477 89.0782 56.0413 87.9222 56.0413 86.6273C56.0413 85.3323 56.2514 84.1763 56.6681 83.1629C57.0884 82.1495 57.674 81.2937 58.4284 80.5919C59.1828 79.89 60.0874 79.357 61.1383 78.9929C62.1892 78.6289 63.349 78.4449 64.6139 78.4449C65.6198 78.4449 66.5394 78.5463 67.3689 78.7527C68.1984 78.9592 68.934 79.2069 69.5758 79.4959C69.452 79.7098 69.3544 79.9988 69.2793 80.3667C69.2043 80.7307 69.1404 81.0385 69.0954 81.2825L68.9565 81.3275C68.8026 81.1436 68.5925 80.9372 68.3147 80.7082C68.0407 80.4793 67.7217 80.2578 67.3538 80.0439C66.9898 79.8299 66.5769 79.6535 66.119 79.5072C65.6611 79.3645 65.1581 79.2894 64.6102 79.2894C63.7093 79.2894 62.8761 79.4358 62.1067 79.7248C61.3372 80.0138 60.6654 80.4605 60.0949 81.061C59.5244 81.6616 59.0777 82.4235 58.7587 83.3468C58.4397 84.2701 58.2783 85.3624 58.2783 86.6273C58.2783 87.8921 58.4397 88.9881 58.7587 89.9077C59.0777 90.8272 59.5244 91.5929 60.0949 92.1935C60.6654 92.7977 61.3372 93.2406 62.1067 93.5297C62.8761 93.8187 63.7093 93.965 64.6102 93.965C65.1581 93.965 65.6648 93.8975 66.1303 93.7586C66.5957 93.6197 67.0236 93.4583 67.4102 93.2669C67.8005 93.0755 68.1496 92.8691 68.4611 92.6514C68.7726 92.4299 69.0353 92.2348 69.2493 92.0696L69.3394 92.1597L69.1329 93.5071C68.9941 93.631 68.7801 93.7624 68.4799 93.9087L68.4911 93.905Z" fill="#0033A0"></path><path d="M84.8518 94.4417C84.6379 94.4117 84.4352 94.3966 84.2475 94.3966H83.0352C82.8438 94.3966 82.6411 94.4117 82.4309 94.4417C82.3221 94.0926 82.1794 93.6685 81.9955 93.1731C81.8116 92.6776 81.6089 92.1597 81.3912 91.6192C81.1698 91.0787 80.9446 90.5307 80.7156 89.9714C80.4867 89.416 80.2727 88.8867 80.0738 88.3838C79.5859 88.3688 79.0904 88.3575 78.5875 88.35C78.0845 88.3425 77.5816 88.3387 77.0786 88.3387C76.6057 88.3387 76.1403 88.3387 75.6824 88.35C75.2245 88.3575 74.7591 88.3688 74.2861 88.3838C73.7982 89.5736 73.3553 90.7034 72.9612 91.7806C72.5634 92.854 72.2668 93.7436 72.0679 94.4454C71.8089 94.4154 71.5274 94.4004 71.2234 94.4004C70.9194 94.4004 70.6379 94.4154 70.3789 94.4454C71.6138 91.7768 72.8186 89.1269 73.9896 86.4883C75.1644 83.8497 76.343 81.1698 77.5328 78.4412H77.9682C78.3322 79.327 78.7301 80.2803 79.158 81.3087C79.5859 82.3371 80.0175 83.3768 80.4604 84.4315C80.9033 85.4862 81.3462 86.5259 81.7853 87.5656C82.2245 88.6052 82.6411 89.5661 83.0314 90.4594C83.4218 91.3527 83.7708 92.1484 84.0824 92.8503C84.3939 93.5521 84.6491 94.0851 84.8481 94.4492L84.8518 94.4417ZM74.7215 87.3328C75.1194 87.3328 75.5285 87.3403 75.9564 87.3554C76.3843 87.3704 76.7934 87.3779 77.1912 87.3779C77.6191 87.3779 78.0432 87.3779 78.4711 87.3666C78.899 87.3554 79.3231 87.3479 79.751 87.3328L77.2138 81.5264L74.7215 87.3328Z" fill="#0033A0"></path><path d="M93.4245 84.6567C93.4245 83.6508 93.4058 82.6636 93.3683 81.6953C93.3307 80.7269 93.2894 79.7398 93.2444 78.7339C93.8224 78.7639 94.4004 78.7902 94.9709 78.8127C95.5414 78.8352 96.1157 78.8465 96.6975 78.8465C97.2792 78.8465 97.8535 78.8277 98.424 78.7902C98.9945 78.7527 99.5688 78.7339 100.151 78.7339C101.49 78.7339 102.639 78.9103 103.592 79.2594C104.546 79.6122 105.326 80.1076 105.934 80.7569C106.542 81.4063 106.989 82.1982 107.271 83.1366C107.552 84.0749 107.695 85.1296 107.695 86.3044C107.695 87.8283 107.432 89.1119 106.907 90.1553C106.381 91.1988 105.709 92.0433 104.895 92.6813C104.08 93.3231 103.179 93.7736 102.196 94.04C101.213 94.3065 100.271 94.4416 99.3736 94.4416C98.8556 94.4416 98.3452 94.4341 97.8422 94.4191C97.3393 94.4041 96.8288 94.3966 96.3109 94.3966H94.7795C94.2766 94.3966 93.7661 94.4116 93.2481 94.4416C93.2932 93.4958 93.3345 92.535 93.372 91.5591C93.4095 90.5832 93.4283 89.5923 93.4283 88.5864V84.6529L93.4245 84.6567ZM95.3012 88.5902C95.3012 90.2379 95.3463 91.8518 95.4401 93.4358C95.7591 93.5108 96.1945 93.5709 96.7425 93.6084C97.2905 93.6459 97.8535 93.6647 98.4353 93.6647C99.2723 93.6647 100.113 93.5671 100.95 93.3682C101.787 93.1693 102.538 92.7977 103.202 92.2459C103.866 91.6979 104.407 90.9473 104.827 89.9939C105.248 89.0406 105.454 87.8095 105.454 86.3006C105.454 84.9757 105.289 83.8835 104.962 83.0315C104.636 82.1795 104.185 81.5039 103.615 81.0084C103.044 80.513 102.361 80.1714 101.569 79.98C100.777 79.7886 99.9066 79.6948 98.9645 79.6948C98.2776 79.6948 97.6396 79.7173 97.0428 79.7623C96.446 79.8074 95.913 79.8599 95.4439 79.9237C95.3988 80.6556 95.365 81.4213 95.3425 82.2207C95.32 83.0202 95.3087 83.8309 95.3087 84.6567V88.5902H95.3012Z" fill="#0033A0"></path><path d="M110.949 81.6615C110.911 80.6856 110.87 79.7098 110.825 78.7339C111.512 78.7639 112.191 78.7902 112.871 78.8127C113.55 78.8352 114.229 78.8465 114.916 78.8465C115.603 78.8465 116.279 78.8352 116.95 78.8127C117.622 78.7902 118.298 78.7639 118.985 78.7339C118.94 78.9628 118.917 79.1918 118.917 79.4208C118.917 79.6497 118.94 79.8787 118.985 80.1076C118.497 80.0776 118.05 80.0476 117.649 80.0175C117.243 79.9875 116.819 79.9575 116.369 79.9275C115.918 79.8974 115.427 79.8712 114.894 79.8486C114.361 79.8261 113.719 79.8149 112.972 79.8149C112.957 80.3028 112.938 80.7682 112.916 81.2111C112.893 81.654 112.882 82.1569 112.882 82.72C112.882 83.313 112.882 83.8947 112.893 84.4577C112.901 85.0207 112.904 85.4486 112.904 85.7376C113.576 85.7376 114.177 85.7301 114.71 85.7151C115.243 85.7001 115.731 85.6813 116.173 85.6588C116.616 85.6363 117.022 85.6138 117.397 85.5913C117.769 85.5687 118.125 85.5425 118.459 85.5124C118.414 85.7414 118.392 85.9779 118.392 86.2218C118.392 86.4508 118.414 86.6797 118.459 86.9087C118.061 86.8636 117.603 86.8261 117.078 86.7961C116.553 86.7661 116.027 86.7473 115.502 86.7398C114.976 86.7323 114.481 86.7248 114.015 86.7173C113.55 86.7098 113.182 86.706 112.908 86.706C112.908 86.8449 112.904 86.9913 112.897 87.1527C112.889 87.314 112.886 87.513 112.886 87.7569V90.0202C112.886 90.891 112.886 91.6041 112.897 92.1709C112.904 92.7339 112.916 93.1618 112.931 93.4508H114.53C115.108 93.4508 115.678 93.4395 116.234 93.417C116.789 93.3945 117.314 93.3644 117.81 93.3269C118.305 93.2894 118.737 93.2331 119.101 93.1543C119.071 93.2631 119.052 93.3795 119.045 93.5071C119.037 93.6384 119.034 93.7548 119.034 93.8599C119.034 94.1039 119.056 94.3028 119.101 94.4529C118.414 94.4229 117.731 94.4079 117.056 94.4079H112.904C112.217 94.4079 111.523 94.4229 110.825 94.4529C110.87 93.477 110.911 92.5049 110.949 91.5366C110.986 90.5682 111.005 89.5811 111.005 88.5752V84.6417C111.005 83.6358 110.986 82.6449 110.949 81.669V81.6615Z" fill="#0033A0"></path><path d="M139.531 93.905C139.234 94.0514 138.874 94.179 138.457 94.2953C138.037 94.4079 137.568 94.513 137.05 94.6031C136.532 94.6932 135.991 94.742 135.425 94.742C134.22 94.742 133.109 94.5693 132.088 94.2278C131.067 93.8862 130.185 93.3645 129.445 92.6626C128.706 91.9608 128.128 91.105 127.708 90.0916C127.287 89.0782 127.081 87.9222 127.081 86.6273C127.081 85.3323 127.291 84.1763 127.708 83.1629C128.128 82.1495 128.714 81.2937 129.468 80.5919C130.222 79.89 131.127 79.357 132.178 78.9929C133.229 78.6289 134.389 78.4449 135.653 78.4449C136.659 78.4449 137.579 78.5463 138.408 78.7527C139.238 78.9592 139.974 79.2069 140.615 79.4959C140.492 79.7098 140.394 79.9988 140.319 80.3667C140.244 80.7307 140.18 81.0385 140.135 81.2825L139.996 81.3275C139.842 81.1436 139.632 80.9372 139.354 80.7082C139.08 80.4793 138.761 80.2578 138.393 80.0439C138.029 79.8299 137.616 79.6535 137.159 79.5072C136.701 79.3645 136.198 79.2894 135.65 79.2894C134.749 79.2894 133.916 79.4358 133.146 79.7248C132.377 80.0138 131.705 80.4605 131.134 81.061C130.564 81.6616 130.117 82.4235 129.798 83.3468C129.479 84.2701 129.318 85.3624 129.318 86.6273C129.318 87.8921 129.479 88.9881 129.798 89.9077C130.117 90.8272 130.564 91.5929 131.134 92.1935C131.705 92.7977 132.377 93.2406 133.146 93.5297C133.916 93.8187 134.749 93.965 135.65 93.965C136.198 93.965 136.704 93.8975 137.17 93.7586C137.635 93.6197 138.063 93.4583 138.45 93.2669C138.84 93.0755 139.189 92.8691 139.501 92.6514C139.812 92.4299 140.075 92.2348 140.289 92.0696L140.379 92.1597L140.172 93.5071C140.034 93.631 139.82 93.7624 139.519 93.9087L139.531 93.905Z" fill="#0033A0"></path><path d="M155.317 86.1656C155.317 83.9999 155.31 82.3334 155.295 81.1586C155.28 79.9838 155.242 79.1769 155.182 78.734C155.351 78.764 155.509 78.7903 155.663 78.8128C155.816 78.8353 155.967 78.8466 156.12 78.8466C156.319 78.8466 156.548 78.809 156.807 78.734C156.762 79.2669 156.717 79.905 156.668 80.6444C156.623 81.3838 156.586 82.1758 156.556 83.0241C156.526 83.8686 156.496 84.7393 156.466 85.6289C156.436 86.5222 156.413 87.3854 156.398 88.2224C156.383 89.2434 156.226 90.1592 155.929 90.9661C155.633 91.7731 155.208 92.46 154.66 93.023C154.112 93.586 153.437 94.0139 152.637 94.3029C151.838 94.5919 150.918 94.7382 149.882 94.7382C147.597 94.7382 145.934 94.2203 144.898 93.1844C143.862 92.1484 143.344 90.5082 143.344 88.2675C143.344 87.5506 143.363 86.9163 143.4 86.357C143.438 85.8015 143.457 85.2348 143.457 84.653C143.457 83.3731 143.442 82.2358 143.412 81.245C143.382 80.2541 143.352 79.4171 143.322 78.7302C143.505 78.7603 143.701 78.7865 143.915 78.809C144.128 78.8316 144.327 78.8428 144.508 78.8428C144.676 78.8428 144.838 78.8316 144.999 78.809C145.161 78.7865 145.322 78.7603 145.491 78.7302C145.461 79.0643 145.431 79.5034 145.401 80.0439C145.371 80.5844 145.341 81.1999 145.311 81.883C145.281 82.5699 145.258 83.3093 145.243 84.1013C145.228 84.8932 145.221 85.7152 145.221 86.571C145.221 87.0889 145.228 87.6257 145.243 88.1812C145.258 88.7366 145.311 89.2771 145.405 89.8063C145.495 90.3318 145.645 90.8348 145.851 91.3152C146.058 91.7956 146.35 92.216 146.733 92.5726C147.112 92.9291 147.593 93.2144 148.175 93.4171C148.753 93.6235 149.47 93.7248 150.325 93.7248C151.181 93.7248 151.868 93.6047 152.438 93.3608C153.009 93.1168 153.478 92.7978 153.846 92.3999C154.21 92.0021 154.499 91.5479 154.702 91.0262C154.908 90.5082 155.054 89.9677 155.148 89.401C155.238 88.838 155.295 88.275 155.31 87.7082C155.325 87.1452 155.332 86.6273 155.332 86.1543L155.317 86.1656Z" fill="#0033A0"></path><path d="M164.783 88.0197C164.629 87.7607 164.408 87.3854 164.108 86.8899C163.811 86.3945 163.481 85.8465 163.124 85.2422C162.764 84.6417 162.389 84.0074 161.991 83.343C161.593 82.6787 161.217 82.0481 160.857 81.4438C160.497 80.8395 160.174 80.299 159.885 79.8186C159.596 79.3382 159.375 78.9779 159.221 78.7339C159.435 78.7639 159.645 78.7902 159.851 78.8127C160.058 78.8352 160.268 78.8465 160.478 78.8465C160.688 78.8465 160.902 78.8352 161.109 78.8127C161.315 78.7902 161.525 78.7639 161.735 78.7339C162.422 80.0588 163.12 81.3612 163.826 82.6449C164.535 83.9248 165.286 85.261 166.078 86.6459C166.427 86.098 166.795 85.4937 167.174 84.8406C167.553 84.1838 167.936 83.5157 168.319 82.8288C168.698 82.1419 169.066 81.4551 169.415 80.7607C169.764 80.0663 170.094 79.3945 170.398 78.7376C170.777 78.8127 171.078 78.8503 171.291 78.8503C171.505 78.8503 171.802 78.8127 172.185 78.7376C171.453 79.8486 170.796 80.8545 170.218 81.7553C169.64 82.6561 169.13 83.4706 168.687 84.2025C168.244 84.9344 167.857 85.595 167.519 86.1805C167.185 86.7661 166.893 87.299 166.649 87.7682C166.649 88.3312 166.649 88.9355 166.66 89.5736C166.667 90.2154 166.679 90.8422 166.694 91.4615C166.709 92.0808 166.727 92.6513 166.75 93.1768C166.772 93.7022 166.799 94.1264 166.829 94.4454C166.48 94.4154 166.104 94.4004 165.71 94.4004C165.316 94.4004 164.941 94.4154 164.588 94.4454C164.678 93.6534 164.734 92.6926 164.749 91.5628C164.764 90.4368 164.772 89.2545 164.772 88.0197H164.783Z" fill="#0033A0"></path><path d="M172.192 86.6235C172.192 85.3286 172.402 84.1725 172.819 83.1591C173.239 82.1457 173.825 81.29 174.579 80.5881C175.334 79.8862 176.238 79.3532 177.289 78.9892C178.34 78.6251 179.492 78.4412 180.742 78.4412C181.992 78.4412 183.167 78.6251 184.218 78.9892C185.269 79.3532 186.173 79.89 186.928 80.5881C187.682 81.29 188.268 82.1457 188.688 83.1591C189.108 84.1725 189.315 85.3286 189.315 86.6235C189.315 87.9184 189.105 89.0744 188.688 90.0878C188.268 91.1012 187.682 91.9607 186.928 92.6588C186.173 93.3607 185.269 93.8824 184.218 94.224C183.167 94.5655 182.007 94.7382 180.742 94.7382C179.477 94.7382 178.34 94.5655 177.289 94.224C176.238 93.8824 175.334 93.3607 174.579 92.6588C173.825 91.957 173.239 91.1012 172.819 90.0878C172.399 89.0744 172.192 87.9184 172.192 86.6235ZM187.074 86.6235C187.074 85.3586 186.913 84.2664 186.594 83.343C186.275 82.4197 185.828 81.6578 185.258 81.0572C184.687 80.4567 184.015 80.0101 183.246 79.7211C182.476 79.432 181.643 79.2857 180.742 79.2857C179.841 79.2857 179.031 79.432 178.261 79.7211C177.492 80.0101 176.82 80.4567 176.25 81.0572C175.679 81.6578 175.232 82.4197 174.913 83.343C174.594 84.2664 174.433 85.3586 174.433 86.6235C174.433 87.8883 174.594 88.9843 174.913 89.9039C175.232 90.8235 175.679 91.5891 176.25 92.1897C176.82 92.794 177.492 93.2369 178.261 93.5259C179.031 93.8149 179.856 93.9613 180.742 93.9613C181.628 93.9613 182.476 93.8149 183.246 93.5259C184.015 93.2369 184.687 92.7902 185.258 92.1897C185.828 91.5891 186.275 90.8272 186.594 89.9039C186.913 88.9806 187.074 87.8883 187.074 86.6235Z" fill="#0033A0"></path><path d="M36.9593 105.965L38.9298 100.946H39.763L36.9593 107.92L34.1555 100.946H34.9888L36.9593 105.965Z" fill="#7A9A01"></path><path d="M42.9722 105.657L42.1389 107.526H41.2944L44.4848 100.627L47.5925 107.526H46.7405L45.9261 105.657H42.9759H42.9722ZM44.466 102.342L43.2837 104.977H45.622L44.466 102.342Z" fill="#7A9A01"></path><path d="M51.4508 106.847H53.3575V107.526H50.6814V100.943H51.4508V106.843V106.847Z" fill="#7A9A01"></path><path d="M61.0894 101.093C61.5248 101.265 61.9114 101.513 62.2492 101.828C62.5833 102.147 62.846 102.511 63.0337 102.928C63.2213 103.345 63.3152 103.784 63.3152 104.242C63.3152 104.7 63.2213 105.146 63.0337 105.559C62.846 105.972 62.587 106.336 62.253 106.648C61.9189 106.959 61.5323 107.203 61.0932 107.376C60.654 107.548 60.1924 107.638 59.7082 107.638C59.224 107.638 58.7661 107.552 58.3307 107.376C57.8953 107.199 57.5087 106.959 57.1709 106.648C56.8331 106.336 56.5741 105.976 56.3865 105.559C56.1988 105.146 56.105 104.707 56.105 104.242C56.105 103.776 56.1988 103.345 56.3865 102.928C56.5741 102.511 56.8331 102.147 57.1672 101.828C57.5012 101.513 57.8878 101.265 58.327 101.093C58.7661 100.916 59.2278 100.83 59.7119 100.83C60.1961 100.83 60.654 100.916 61.0932 101.093H61.0894ZM58.6085 101.719C58.2632 101.858 57.9591 102.057 57.7002 102.309C57.4412 102.56 57.2385 102.853 57.0959 103.187C56.9532 103.517 56.8819 103.866 56.8819 104.234C56.8819 104.602 56.957 104.947 57.1034 105.278C57.2498 105.608 57.4524 105.897 57.7114 106.152C57.9704 106.404 58.2744 106.602 58.6197 106.745C58.965 106.888 59.3291 106.959 59.7157 106.959C60.1023 106.959 60.4664 106.888 60.8117 106.745C61.157 106.602 61.461 106.404 61.72 106.152C61.979 105.901 62.1817 105.608 62.328 105.278C62.4744 104.947 62.5495 104.602 62.5495 104.234C62.5495 103.866 62.4782 103.517 62.3355 103.187C62.1929 102.857 61.9902 102.564 61.7313 102.309C61.4723 102.057 61.1682 101.858 60.8229 101.719C60.4776 101.581 60.1098 101.509 59.7195 101.509C59.3291 101.509 58.9613 101.581 58.616 101.719H58.6085Z" fill="#7A9A01"></path><path d="M67.4552 107.526H66.6858V100.943H67.6842C68.037 100.943 68.3673 100.969 68.6638 101.025C68.9603 101.081 69.2306 101.175 69.4595 101.303C69.6922 101.434 69.8761 101.622 70.0113 101.862C70.1464 102.102 70.2139 102.403 70.2139 102.755C70.2139 103.262 70.0563 103.679 69.7448 104.009C69.4332 104.339 69.0129 104.527 68.4799 104.572L70.6794 107.522H69.7335L67.6429 104.632H67.4515V107.522L67.4552 107.526ZM67.4552 103.99H67.6954C67.9469 103.99 68.1721 103.975 68.3673 103.945C68.5662 103.915 68.7464 103.859 68.9115 103.776C69.0767 103.694 69.208 103.57 69.3019 103.412C69.3957 103.255 69.4445 103.056 69.4445 102.812C69.4445 102.549 69.3995 102.339 69.3056 102.177C69.2118 102.016 69.0879 101.9 68.9303 101.821C68.7727 101.742 68.5925 101.689 68.3936 101.663C68.1946 101.637 67.9582 101.626 67.6842 101.626H67.4552V103.99Z" fill="#7A9A01"></path><path d="M79.9125 107.526H79.1431V100.943H80.2803C80.6594 100.943 80.9822 100.961 81.2525 101.003C81.5227 101.044 81.7704 101.138 81.9956 101.292C82.2471 101.453 82.4385 101.671 82.5736 101.937C82.7088 102.204 82.7763 102.489 82.7763 102.793C82.7763 103.067 82.72 103.33 82.6074 103.577C82.4948 103.829 82.3297 104.035 82.1157 104.204C81.9018 104.373 81.6578 104.489 81.3876 104.549C81.1173 104.61 80.8096 104.64 80.4755 104.64H79.9163V107.522L79.9125 107.526ZM79.9125 103.964H80.4267C80.6519 103.964 80.8583 103.945 81.046 103.908C81.2337 103.87 81.3988 103.806 81.5452 103.716C81.6916 103.626 81.8042 103.502 81.883 103.348C81.9618 103.195 82.0031 103.003 82.0031 102.778C82.0031 102.523 81.9543 102.316 81.8567 102.159C81.7592 102.001 81.6278 101.885 81.4589 101.81C81.29 101.734 81.1061 101.686 80.9034 101.659C80.7007 101.633 80.468 101.626 80.1978 101.626H79.9125V103.964Z" fill="#7A9A01"></path><path d="M90.7259 101.093C91.1613 101.265 91.5479 101.513 91.8857 101.828C92.2197 102.147 92.4825 102.511 92.6701 102.928C92.8578 103.345 92.9516 103.784 92.9516 104.242C92.9516 104.7 92.8578 105.146 92.6701 105.559C92.4825 105.972 92.2235 106.336 91.8894 106.648C91.5554 106.959 91.1688 107.203 90.7297 107.376C90.2905 107.548 89.8289 107.638 89.3447 107.638C88.8605 107.638 88.4026 107.552 87.9672 107.376C87.5318 107.199 87.1452 106.959 86.8074 106.648C86.4696 106.336 86.2106 105.976 86.023 105.559C85.8353 105.146 85.7415 104.707 85.7415 104.242C85.7415 103.776 85.8353 103.345 86.023 102.928C86.2106 102.511 86.4696 102.147 86.8036 101.828C87.1377 101.513 87.5243 101.265 87.9634 101.093C88.4026 100.916 88.8642 100.83 89.3484 100.83C89.8326 100.83 90.2905 100.916 90.7297 101.093H90.7259ZM88.2412 101.719C87.8959 101.858 87.5919 102.057 87.3329 102.309C87.0739 102.56 86.8712 102.853 86.7286 103.187C86.586 103.517 86.5146 103.866 86.5146 104.234C86.5146 104.602 86.5897 104.947 86.7361 105.278C86.8825 105.608 87.0851 105.897 87.3441 106.152C87.6031 106.404 87.9071 106.602 88.2524 106.745C88.5978 106.888 88.9618 106.959 89.3484 106.959C89.735 106.959 90.0991 106.888 90.4444 106.745C90.7897 106.602 91.0937 106.404 91.3527 106.152C91.6117 105.901 91.8144 105.608 91.9608 105.278C92.1071 104.947 92.1822 104.602 92.1822 104.234C92.1822 103.866 92.1109 103.517 91.9683 103.187C91.8256 102.857 91.623 102.564 91.364 102.309C91.105 102.057 90.801 101.858 90.4557 101.719C90.1104 101.581 89.7425 101.509 89.3522 101.509C88.9618 101.509 88.594 101.581 88.2487 101.719H88.2412Z" fill="#7A9A01"></path><path d="M97.0993 107.526H96.3298V100.943H97.3282C97.681 100.943 98.0113 100.969 98.3079 101.025C98.6044 101.081 98.8746 101.175 99.1036 101.303C99.3363 101.434 99.5202 101.622 99.6553 101.862C99.7904 102.102 99.858 102.403 99.858 102.755C99.858 103.262 99.7003 103.679 99.3888 104.009C99.0773 104.339 98.6569 104.527 98.1239 104.572L100.323 107.522H99.3776L97.2869 104.632H97.0955V107.522L97.0993 107.526ZM97.0993 103.99H97.3395C97.591 103.99 97.8162 103.975 98.0113 103.945C98.2103 103.915 98.3904 103.859 98.5556 103.776C98.7207 103.694 98.8521 103.57 98.9459 103.412C99.0398 103.255 99.0885 103.056 99.0885 102.812C99.0885 102.549 99.0435 102.339 98.9497 102.177C98.8558 102.016 98.732 101.9 98.5743 101.821C98.4167 101.742 98.2365 101.689 98.0376 101.663C97.8387 101.637 97.6022 101.626 97.3282 101.626H97.0993V103.99Z" fill="#7A9A01"></path><path d="M109.557 106.847H111.463V107.526H108.787V100.943H109.557V106.843V106.847Z" fill="#7A9A01"></path><path d="M115.599 105.657L114.766 107.526H113.922L117.112 100.627L120.22 107.526H119.368L118.553 105.657H115.603H115.599ZM117.093 102.342L115.911 104.977H118.249L117.093 102.342Z" fill="#7A9A01"></path><path d="M130.632 105.965L132.602 100.946H133.435L130.632 107.92L127.828 100.946H128.661L130.632 105.965Z" fill="#7A9A01"></path><path d="M137.312 107.526H136.543V100.943H137.312V107.526Z" fill="#7A9A01"></path><path d="M141.043 100.942H142.346C142.92 100.942 143.419 100.999 143.84 101.108C144.26 101.216 144.662 101.427 145.041 101.734C145.427 102.05 145.713 102.421 145.904 102.849C146.092 103.277 146.189 103.742 146.189 104.242C146.189 104.741 146.095 105.18 145.904 105.593C145.716 106.006 145.435 106.374 145.06 106.693C144.673 107.019 144.271 107.237 143.855 107.353C143.434 107.466 142.928 107.522 142.327 107.522H141.043V100.939V100.942ZM142.372 106.846C142.841 106.846 143.25 106.798 143.596 106.704C143.941 106.61 144.26 106.43 144.553 106.167C144.834 105.916 145.048 105.627 145.195 105.293C145.341 104.959 145.416 104.609 145.416 104.238C145.416 103.866 145.341 103.491 145.187 103.146C145.033 102.8 144.812 102.508 144.519 102.264C144.226 102.012 143.911 101.843 143.569 101.757C143.232 101.671 142.83 101.626 142.372 101.626H141.813V106.846H142.372Z" fill="#7A9A01"></path><path d="M150.633 105.657L149.8 107.526H148.955L152.146 100.627L155.253 107.526H154.401L153.587 105.657H150.637H150.633ZM152.127 102.342L150.945 104.977H153.283L152.127 102.342Z" fill="#7A9A01"></path></svg>