<?xml version="1.0" encoding="UTF-8" standalone="no"?>
<svg
   version="1.1"
   width="152.17281pt"
   height="96.329498pt"
   id="svg12"
   viewBox="0 0 152.17281 96.329494"
   xmlns:xlink="http://www.w3.org/1999/xlink"
   xmlns="http://www.w3.org/2000/svg"
   xmlns:svg="http://www.w3.org/2000/svg">
  <defs
     id="defs2">
    <linearGradient
       id="grad1">
      <stop
         offset="0%"
         stop-color="#04d1e0"
         stop-opacity="1.0000"
         id="stop1" />
      <stop
         offset="100%"
         stop-color="#2a44a3"
         stop-opacity="1.0000"
         id="stop2" />
    </linearGradient>
    <linearGradient
       xlink:href="#grad1"
       id="grad2"
       x1="301.0955"
       y1="1110.947"
       x2="301.0955"
       y2="1232.0202"
       gradientTransform="matrix(1.2568657,0,0,0.79562998,-378.4366,-883.90266)"
       gradientUnits="userSpaceOnUse" />
  </defs>
  <path
     d="M 93.347698,0.75053849 H 113.4213 v -0.0111 h 4.0016 v 0.0111 h 0.009 V 4.7521385 h -0.009 V 35.452038 h 15.7089 c 0.6603,-0.8306 1.6791,-1.3635 2.8226,-1.3635 1.9902,0 3.6037,1.6137 3.6037,3.6037 0,1.9903 -1.6135,3.604 -3.6037,3.604 -1.3506,0 -2.5274,-0.7431 -3.1445,-1.8426 h -19.4264 v -4.0016 h 0.0378 V 4.7521385 h -6.1818 V 46.891238 h 38.3319 c 0.6465,-0.9664 1.7477,-1.6029 2.9977,-1.6029 1.9902,0 3.6037,1.6135 3.6037,3.6038 0,1.9902 -1.6135,3.6037 -3.6037,3.6037 -1.25,0 -2.3512,-0.6365 -2.9977,-1.6029 H 108.144 l 20.793,29.884 c 0.8535,-0.3192 1.7774,-0.4941 2.7421,-0.4941 4.3258,0 7.8326,3.5068 7.8326,7.8326 0,4.3258 -3.5068,7.8325 -7.8326,7.8325 -4.3257,0 -7.8325,-3.5067 -7.8325,-7.8325 0,-1.9732 0.7301,-3.776 1.9343,-5.153 l -22.5113,-32.0695 h -0.0317 v -0.1058 -3.8959 -36.2571 l -32.762002,45.5197 c 0.1764,0.4253 0.2738,0.8914 0.2738,1.3801 0,1.9903 -1.6136,3.6036 -3.6036,3.6036 -1.9903,0 -3.604,-1.6133 -3.604,-3.6036 0,-1.9903 1.6137,-3.6037 3.604,-3.6037 L 102.5412,4.7521385 h -7.189102 l -34.1154,46.9345995 v 28.6602 l 35.8193,-49.0411 v 0.1538 6.654 51.7662 c 0.8478,0.6594 1.3928,1.6891 1.3928,2.846 0,1.9903 -1.6134,3.6037 -3.6037,3.6037 -1.9903,0 -3.6037,-1.6134 -3.6037,-3.6037 0,-1.3334 0.7243,-2.4975 1.8006,-3.1207 l -0.3529,-45.4809 -32.7965,45.1404 -1.311,1.9196 -33.6838,-48.8332 v 53.5621 H -1.5005895e-6 V 3.8494934e-5 H 24.897798 v 0 L 58.896598,48.146838 l 34.4509,-47.39629951 2e-4,2e-4 z M 131.6791,83.841038 c 2.3609,0 4.2744,1.9135 4.2744,4.2744 0,2.3606 -1.9135,4.2741 -4.2744,4.2741 -2.3605,0 -4.274,-1.9135 -4.274,-4.2741 0,-2.3609 1.9135,-4.2744 4.274,-4.2744 z"
     style="fill:url(#grad2)"
     id="path2" />
  <defs
     id="defs4" />
</svg>
