<?xml version="1.0" encoding="UTF-8"?>
<!DOCTYPE svg PUBLIC "-//W3C//DTD SVG 1.1//EN" "http://www.w3.org/Graphics/SVG/1.1/DTD/svg11.dtd">
<!-- Creator: CorelDRAW X8 -->
<svg xmlns="http://www.w3.org/2000/svg" xml:space="preserve" width="142.391mm" height="94.6031mm" version="1.1" style="shape-rendering:geometricPrecision; text-rendering:geometricPrecision; image-rendering:optimizeQuality; fill-rule:evenodd; clip-rule:evenodd"
viewBox="0 0 14221 9448"
 xmlns:xlink="http://www.w3.org/1999/xlink">
 <defs>
  <style type="text/css">
   <![CDATA[
    .fil1 {fill:#04D1E0;fill-rule:nonzero}
    .fil2 {fill:white;fill-rule:nonzero}
    .fil0 {fill:url(#id0)}
   ]]>
  </style>
  <linearGradient id="id0" gradientUnits="userSpaceOnUse" x1="9647.83" y1="6236.34" x2="6620.75" y2="-445.218">
   <stop offset="0" style="stop-opacity:1; stop-color:#04D1E0"/>
   <stop offset="1" style="stop-opacity:1; stop-color:#2A44A3"/>
  </linearGradient>
 </defs>
 <g id="Capa_x0020_1">
  <metadata id="CorelCorpID_0Corel-Layer"/>
  <g id="_2315600094000">
   <path class="fil0" d="M9220 1l1213 0 0 0 242 0 0 0 1 0 0 242 -1 0 0 1857 950 0c40,-50 101,-82 170,-82 121,0 218,97 218,218 0,120 -97,218 -218,218 -81,0 -152,-45 -190,-112l-1174 0 0 -242 2 0 0 -1857 -373 0 0 2549 2317 0c39,-58 105,-97 181,-97 120,0 218,98 218,218 0,121 -98,218 -218,218 -76,0 -142,-38 -181,-97l-2263 0 1257 1808c52,-20 108,-30 166,-30 261,0 473,212 473,474 0,261 -212,473 -473,473 -262,0 -474,-212 -474,-473 0,-120 45,-229 117,-312l-1360 -1940 -2 0 0 -6 0 -236 0 -2193 -1981 2753c11,26 17,54 17,84 0,120 -98,218 -218,218 -120,0 -218,-98 -218,-218 0,-120 98,-218 218,-218l2140 -2975 -435 0 -2062 2839 0 1734 2165 -2966 0 9 0 402 0 3131c51,40 84,102 84,172 0,121 -97,218 -218,218 -120,0 -217,-97 -217,-218 0,-80 43,-151 108,-188l-21 -2751 -1982 2730 -80 116 -2036 -2953 0 3239 -1505 0 10 -5757 1505 0 0 0 2045 2868 2083 -2867 0 0 0 0zm2317 5026c143,0 258,116 258,259 0,142 -115,258 -258,258 -143,0 -258,-116 -258,-258 0,-143 115,-259 258,-259z"/>
   <path class="fil1" d="M321 8354l0 -383c0,-92 -2,-194 -3,-275l3 -2c48,75 100,151 154,225l141 198 139 -198c52,-74 106,-150 154,-225l3 2c-1,81 -3,183 -3,275l0 383 334 0 0 -1174 -318 0 -301 428 -303 -428 -321 0 0 1174 321 0zm1018 0l345 0 86 -240 402 0 82 240 363 0 -475 -1174 -329 0 -474 1174zm636 -817c23,73 44,139 72,219l39 112 -227 0 40 -112c28,-76 51,-145 73,-219l3 0zm892 817l334 0 0 -532 453 -642 -379 0 -108 169c-43,65 -85,133 -127,201l-3 0c-41,-67 -86,-138 -130,-204l-107 -166 -389 0 456 649 0 525zm855 0l344 0c282,0 462,-57 579,-162 111,-102 166,-248 166,-423 0,-198 -71,-357 -201,-454 -124,-94 -307,-135 -550,-135l-338 0 0 1174zm334 -282l0 -610 12 0c131,0 238,13 309,67 67,50 101,130 101,240 0,76 -17,147 -60,201 -51,60 -136,102 -349,102l-13 0zm738 282l345 0 86 -240 402 0 82 240 363 0 -475 -1174 -329 0 -474 1174zm637 -817c22,73 43,139 71,219l39 112 -227 0 40 -112c28,-76 51,-145 73,-219l4 0zm891 817l334 0 0 -532 453 -642 -379 0 -108 169c-43,65 -85,133 -127,201l-3 0c-41,-67 -86,-138 -130,-204l-107 -166 -389 0 456 649 0 525zm1197 -580c0,341 266,598 665,598 141,0 285,-33 394,-85l0 -575 -483 0 0 245 160 0 0 124c-18,5 -47,9 -71,9 -206,0 -331,-143 -331,-316 0,-177 128,-315 337,-315 119,0 245,46 349,109l0 -323c-97,-48 -224,-82 -362,-82 -380,0 -658,262 -658,611zm1235 580l824 0 0 -282 -490 0 0 -892 -334 0 0 1174zm892 -587c0,339 273,605 627,605 353,0 627,-266 627,-605 0,-339 -274,-604 -627,-604 -354,0 -627,265 -627,604zm333 0c0,-170 128,-305 294,-305 165,0 293,135 293,305 0,170 -128,305 -293,305 -166,0 -294,-135 -294,-305zm1065 587l381 0c143,0 261,-20 350,-60 135,-60 204,-166 204,-302 0,-129 -63,-233 -227,-288l0 -3c115,-44 179,-115 179,-226 0,-105 -57,-181 -141,-228 -81,-46 -196,-67 -383,-67l-363 0 0 1174zm334 -705l0 -203 39 0c70,0 107,5 131,18 36,18 49,45 49,83 0,71 -47,102 -148,102l-71 0zm0 439l0 -225 105 0c107,0 162,34 162,113 0,42 -14,71 -47,89 -27,15 -76,23 -171,23l-49 0zm616 266l345 0 86 -240 402 0 82 240 363 0 -474 -1174 -329 0 -475 1174zm637 -817c22,73 43,139 71,219l39 112 -227 0 40 -112c28,-76 51,-145 73,-219l4 0zm737 817l823 0 0 -282 -489 0 0 -892 -334 0 0 1174z"/>
   <path class="fil2" d="M4 9441l110 0 0 -213 218 0 0 213 111 0 0 -504 -111 0 0 195 -218 0 0 -195 -110 0 0 504zm580 -75c36,52 101,82 182,82 81,0 146,-30 181,-80 29,-41 39,-96 39,-172l0 -259 -106 0 0 259c0,108 -30,153 -111,153 -88,0 -112,-48 -112,-154l0 -258 -110 0 0 262c0,72 10,127 37,167zm506 75l149 0c155,0 228,-58 228,-153 0,-60 -31,-103 -96,-122l0 -1c46,-17 76,-49 76,-100 0,-84 -65,-128 -210,-128l-147 0 0 504zm110 -296l0 -114 35 0c77,0 101,18 101,57 0,40 -31,57 -77,57l-59 0zm0 201l0 -125 67 0c57,0 89,21 89,62 0,45 -23,63 -115,63l-41 0zm500 95l136 0c216,0 314,-98 314,-253 0,-162 -108,-251 -309,-251l-141 0 0 504zm110 -97l0 -311 30 0c57,0 105,6 140,31 38,26 59,71 59,124 0,100 -59,156 -198,156l-31 0zm424 97l319 0 0 -97 -209 0 0 -120 173 0 0 -92 -173 0 0 -99 201 0 0 -96 -311 0 0 504zm552 -28c46,23 107,35 157,35 108,0 183,-59 183,-157 0,-89 -61,-125 -137,-150 -61,-20 -108,-23 -108,-68 0,-33 28,-47 65,-47 39,0 101,15 155,48l0 -109c-44,-24 -105,-36 -154,-36 -106,0 -177,58 -177,152 0,88 63,122 132,145 65,21 112,25 112,72 0,38 -30,54 -70,54 -40,0 -104,-16 -158,-51l0 112zm662 -65c-87,0 -152,-70 -152,-159 0,-90 65,-160 152,-160 87,0 153,70 153,160 0,89 -66,159 -153,159zm0 100c150,0 263,-112 263,-259 0,-147 -113,-260 -263,-260 -150,0 -263,113 -263,260 0,147 113,259 263,259zm350 -7l331 0 0 -97 -221 0 0 -407 -110 0 0 504zm435 -75c36,52 101,82 182,82 81,0 146,-30 181,-80 29,-41 39,-96 39,-172l0 -259 -106 0 0 259c0,108 -30,153 -111,153 -88,0 -112,-48 -112,-154l0 -258 -110 0 0 262c0,72 10,127 37,167zm484 -177c0,147 112,259 275,259 50,0 104,-10 147,-33l0 -113c-42,29 -90,47 -143,47 -103,0 -168,-71 -168,-161 0,-91 67,-160 164,-160 52,0 103,19 140,44l0 -112c-40,-19 -90,-31 -140,-31 -163,0 -275,114 -275,260zm513 252l110 0 0 -504 -110 0 0 504zm460 -93c-87,0 -153,-70 -153,-159 0,-90 66,-160 153,-160 87,0 152,70 152,160 0,89 -65,159 -152,159zm0 100c149,0 263,-112 263,-259 0,-147 -114,-260 -263,-260 -150,0 -264,113 -264,260 0,147 114,259 264,259zm701 -7l105 0 0 -504 -107 0 0 187c0,49 1,97 2,145l-2 1c-31,-44 -62,-86 -94,-130l-151 -203 -105 0 0 504 107 0 0 -188c0,-48 -1,-97 -2,-145l2 -1c31,44 62,86 94,130l151 204zm213 0l319 0 0 -97 -208 0 0 -120 173 0 0 -92 -173 0 0 -99 201 0 0 -96 -312 0 0 504zm404 -28c46,23 107,35 157,35 108,0 183,-59 183,-157 0,-89 -61,-125 -137,-150 -61,-20 -107,-23 -107,-68 0,-33 27,-47 64,-47 39,0 101,15 155,48l0 -109c-44,-24 -105,-36 -154,-36 -106,0 -177,58 -177,152 0,88 63,122 132,145 65,21 113,25 113,72 0,38 -30,54 -71,54 -39,0 -104,-16 -158,-51l0 112zm570 28l111 0 0 -504 -111 0 0 504zm346 0l111 0 0 -408 163 0 0 -96 -437 0 0 96 163 0 0 408zm496 0l110 0 0 -181 35 0c151,0 236,-46 236,-163 0,-126 -108,-160 -232,-160l-149 0 0 504zm110 -270l0 -138 38 0c84,0 122,14 122,70 0,47 -28,68 -119,68l-41 0zm280 270l114 0 41 -106 203 0 41 106 118 0 -205 -504 -107 0 -205 504zm209 -247c16,-42 34,-92 47,-131l2 0c13,39 31,89 46,128l21 57 -136 0 20 -54zm372 247l111 0 0 -199 50 0 127 199 128 0 -142 -213c66,-22 102,-75 102,-140 0,-120 -102,-151 -217,-151l-159 0 0 504zm111 -282l0 -126 43 0c82,0 111,19 111,63 0,47 -35,63 -98,63l-56 0zm332 282l113 0 41 -106 204 0 40 106 118 0 -204 -504 -108 0 -204 504zm208 -247c16,-42 35,-92 48,-131l1 0c13,39 32,89 46,128l21 57 -136 0 20 -54zm521 247l319 0 0 -97 -208 0 0 -120 173 0 0 -92 -173 0 0 -99 201 0 0 -96 -312 0 0 504zm661 -117l73 -103c25,-36 50,-73 74,-108l1 0c0,37 -1,84 -1,126l0 202 111 0 0 -504 -105 0 -150 213 -150 -213 -106 0 0 504 106 0 0 -202c0,-42 -1,-89 -1,-126l1 0c24,35 49,72 74,108l73 103zm366 117l111 0 0 -181 35 0c150,0 235,-46 235,-163 0,-126 -108,-160 -231,-160l-150 0 0 504zm111 -270l0 -138 38 0c83,0 122,14 122,70 0,47 -28,68 -120,68l-40 0zm351 270l111 0 0 -199 49 0 127 199 128 0 -142 -213c67,-22 102,-75 102,-140 0,-120 -102,-151 -217,-151l-158 0 0 504zm111 -282l0 -126 42 0c82,0 111,19 111,63 0,47 -35,63 -98,63l-55 0zm360 282l319 0 0 -97 -208 0 0 -120 173 0 0 -92 -173 0 0 -99 200 0 0 -96 -311 0 0 504zm404 -28c46,23 106,35 157,35 108,0 183,-59 183,-157 0,-89 -62,-125 -137,-150 -61,-20 -108,-23 -108,-68 0,-33 27,-47 65,-47 39,0 101,15 155,48l0 -109c-44,-24 -105,-36 -154,-36 -106,0 -177,58 -177,152 0,88 63,122 132,145 65,21 112,25 112,72 0,38 -30,54 -70,54 -40,0 -104,-16 -158,-51l0 112zm376 28l114 0 41 -106 203 0 41 106 118 0 -205 -504 -107 0 -205 504zm209 -247c16,-42 34,-92 48,-131l1 0c13,39 31,89 46,128l21 57 -136 0 20 -54zm369 219c46,23 107,35 157,35 109,0 183,-59 183,-157 0,-89 -61,-125 -137,-150 -61,-20 -107,-23 -107,-68 0,-33 27,-47 64,-47 39,0 101,15 155,48l0 -109c-44,-24 -104,-36 -154,-36 -106,0 -177,58 -177,152 0,88 63,122 133,145 64,21 112,25 112,72 0,38 -30,54 -71,54 -39,0 -103,-16 -158,-51l0 112z"/>
  </g>
 </g>
</svg>
