<svg width="109" height="109" viewBox="0 0 109 109" fill="none" xmlns="http://www.w3.org/2000/svg">
<path d="M54.25 65.8749C49.774 65.8788 45.3667 64.7734 41.4224 62.6575C37.478 60.5417 34.1195 57.4813 31.6471 53.75L38.1029 49.4604C39.8701 52.1253 42.2695 54.3114 45.0869 55.8237C47.9044 57.336 51.0523 58.1274 54.25 58.1274C57.4477 58.1274 60.5956 57.336 63.4131 55.8237C66.2305 54.3114 68.6299 52.1253 70.3971 49.4604L76.8529 53.75C74.3805 57.4813 71.022 60.5417 67.0776 62.6575C63.1333 64.7734 58.726 65.8788 54.25 65.8749ZM69.75 23.2499C68.2172 23.2499 66.7188 23.7044 65.4443 24.556C64.1698 25.4076 63.1765 26.618 62.5899 28.0341C62.0034 29.4502 61.8499 31.0085 62.1489 32.5119C62.448 34.0152 63.1861 35.3961 64.2699 36.48C65.3538 37.5638 66.7347 38.302 68.2381 38.601C69.7414 38.9 71.2997 38.7466 72.7158 38.16C74.1319 37.5734 75.3423 36.5801 76.1939 35.3056C77.0455 34.0311 77.5 32.5327 77.5 30.9999C77.5104 29.9793 77.317 28.9668 76.9312 28.0219C76.5454 27.0769 75.9749 26.2185 75.2532 25.4967C74.5314 24.775 73.673 24.2045 72.728 23.8187C71.7831 23.4329 70.7706 23.2395 69.75 23.2499ZM38.75 23.2499C37.2172 23.2499 35.7188 23.7044 34.4443 24.556C33.1699 25.4076 32.1765 26.618 31.5899 28.0341C31.0034 29.4502 30.8499 31.0085 31.1489 32.5119C31.448 34.0152 32.1861 35.3961 33.2699 36.48C34.3538 37.5638 35.7347 38.302 37.2381 38.601C38.7414 38.9 40.2997 38.7466 41.7158 38.16C43.1319 37.5734 44.3423 36.5801 45.1939 35.3056C46.0455 34.0311 46.5 32.5327 46.5 30.9999C46.5104 29.9793 46.317 28.9668 45.9312 28.0219C45.5454 27.0769 44.9749 26.2185 44.2532 25.4967C43.5314 24.775 42.673 24.2045 41.728 23.8187C40.7831 23.4329 39.7706 23.2395 38.75 23.2499Z" fill="#2A449E"/>
<path d="M60.977 108.5L54.25 104.625L69.75 77.5H93C94.0182 77.5015 95.0266 77.3021 95.9676 76.9132C96.9086 76.5243 97.7635 75.9535 98.4835 75.2335C99.2035 74.5135 99.7743 73.6586 100.163 72.7176C100.552 71.7766 100.752 70.7682 100.75 69.75V15.5C100.752 14.4818 100.552 13.4734 100.163 12.5324C99.7743 11.5914 99.2035 10.7365 98.4835 10.0165C97.7635 9.29655 96.9086 8.72575 95.9676 8.33682C95.0266 7.94788 94.0182 7.74847 93 7.75H15.5C14.4818 7.74847 13.4734 7.94788 12.5324 8.33682C11.5914 8.72575 10.7365 9.29655 10.0165 10.0165C9.29655 10.7365 8.72575 11.5914 8.33682 12.5324C7.94788 13.4734 7.74847 14.4818 7.75 15.5V69.75C7.74847 70.7682 7.94788 71.7766 8.33682 72.7176C8.72575 73.6586 9.29655 74.5135 10.0165 75.2335C10.7365 75.9535 11.5914 76.5243 12.5324 76.9132C13.4734 77.3021 14.4818 77.5015 15.5 77.5H50.375V85.25H15.5C11.3891 85.25 7.44666 83.617 4.53984 80.7102C1.63303 77.8033 0 73.8609 0 69.75V15.5C0 11.3891 1.63303 7.44666 4.53984 4.53984C7.44666 1.63303 11.3891 0 15.5 0H93C97.1109 0 101.053 1.63303 103.96 4.53984C106.867 7.44666 108.5 11.3891 108.5 15.5V69.75C108.5 73.8609 106.867 77.8033 103.96 80.7102C101.053 83.617 97.1109 85.25 93 85.25H74.2644L60.977 108.5Z" fill="#2A449E"/>
</svg>
