<svg width="84" height="85" viewBox="0 0 84 85" fill="none" xmlns="http://www.w3.org/2000/svg">
<path d="M71.5417 12.2465C67.6829 8.35001 63.0872 5.2605 58.0224 3.158C52.9577 1.0555 47.5251 -0.0179408 42.0413 0.000226809C19.0637 0.000226809 0.336667 18.7273 0.336667 41.7048C0.336667 49.0694 2.2725 56.2236 5.89167 62.5361L0 84.1669L22.0938 78.3594C28.1958 81.684 35.0554 83.4515 42.0413 83.4515C65.0188 83.4515 83.7458 64.7244 83.7458 41.7469C83.7458 30.5948 79.4113 20.1161 71.5417 12.2465ZM42.0413 76.3815C35.8129 76.3815 29.7108 74.6981 24.3663 71.5419L23.1038 70.7844L9.97375 74.2352L13.4667 61.4419L12.625 60.1373C9.16385 54.612 7.32639 48.2247 7.3225 41.7048C7.3225 22.599 22.8933 7.02814 41.9992 7.02814C51.2575 7.02814 59.9688 10.6473 66.4917 17.2123C69.7221 20.4269 72.282 24.2509 74.023 28.4626C75.764 32.6742 76.6514 37.1896 76.6338 41.7469C76.7179 60.8527 61.1471 76.3815 42.0413 76.3815ZM61.0629 50.4581C60.0108 49.9531 54.8767 47.4282 53.9508 47.0494C52.9829 46.7127 52.3096 46.5444 51.5942 47.5544C50.8788 48.6065 48.9008 50.9632 48.3117 51.6365C47.7225 52.3519 47.0913 52.4361 46.0392 51.889C44.9871 51.384 41.6204 50.2477 37.6646 46.7127C34.5504 43.9352 32.4883 40.5265 31.8571 39.4744C31.2679 38.4223 31.7729 37.8752 32.32 37.3281C32.7829 36.8652 33.3721 36.1077 33.8771 35.5186C34.3821 34.9294 34.5925 34.4665 34.9292 33.7931C35.2658 33.0777 35.0975 32.4886 34.845 31.9836C34.5925 31.4786 32.4883 26.3444 31.6467 24.2402C30.805 22.2202 29.9213 22.4727 29.29 22.4306H27.27C26.5546 22.4306 25.4604 22.6831 24.4925 23.7352C23.5667 24.7873 20.8733 27.3123 20.8733 32.4465C20.8733 37.5806 24.6188 42.5465 25.1238 43.2198C25.6288 43.9352 32.4883 54.4561 42.925 58.959C45.4079 60.0532 47.3438 60.6844 48.8587 61.1473C51.3417 61.9469 53.6142 61.8206 55.4238 61.5681C57.4438 61.2736 61.61 59.0431 62.4517 56.6023C63.3354 54.1615 63.3354 52.0994 63.0408 51.6365C62.7463 51.1736 62.115 50.9631 61.0629 50.4581Z" fill="#2A449E"/>
</svg>
