<svg width="170" height="16" viewBox="0 0 170 16" fill="none" xmlns="http://www.w3.org/2000/svg">
<path fill-rule="evenodd" clip-rule="evenodd" d="M14.5228 0.00857233H17.6456L18.2674 0.00685786V0.00857233V0.639496V5.476H20.7108C20.8141 5.3457 20.9717 5.2617 21.1496 5.2617C21.4597 5.2617 21.7105 5.51544 21.7105 5.82918C21.7105 6.14293 21.4597 6.39667 21.1496 6.39667C20.9395 6.39667 20.7565 6.28009 20.6599 6.10693H17.6371V5.476H17.6422V0.639496H16.6798V7.27791H22.6441C22.7441 7.12532 22.9152 7.02588 23.11 7.02588C23.4201 7.02588 23.6709 7.27962 23.6709 7.59337C23.6709 7.90712 23.4201 8.16086 23.11 8.16086C22.9152 8.16086 22.7441 8.06142 22.6441 7.90883H16.8204L20.055 12.6168C20.1872 12.567 20.3312 12.5396 20.482 12.5396C21.1547 12.5396 21.7003 13.0917 21.7003 13.774C21.7003 14.4564 21.1547 15.0084 20.482 15.0084C19.8093 15.0084 19.2637 14.4564 19.2637 13.774C19.2637 13.4637 19.3773 13.1791 19.5653 12.9631L16.063 7.91054H16.0579V1.56531L10.9611 8.7352C10.9882 8.80207 11.0035 8.87579 11.0035 8.95294C11.0035 9.26669 10.7527 9.52043 10.4426 9.52043C10.1326 9.52043 9.88179 9.26669 9.88179 8.95294C9.88179 8.63919 10.1326 8.38545 10.4426 8.38545L15.9529 0.639496H14.8345L9.52597 8.03227V12.5465L15.0989 4.82108V14.0483C15.231 14.1529 15.3158 14.3141 15.3158 14.4958C15.3158 14.8096 15.065 15.0633 14.7549 15.0633C14.4448 15.0633 14.1941 14.8096 14.1941 14.4958C14.1941 14.2849 14.3059 14.1032 14.4736 14.0038L14.4194 6.839L9.31755 13.9489L9.11423 14.2506L3.87342 6.55783V14.9947H0L0.0254164 0H3.89883L9.16336 7.46993L14.5228 0.00857233ZM20.4871 13.0968C20.1194 13.0968 19.8229 13.3986 19.8229 13.7706C19.8229 14.1426 20.1211 14.4444 20.4871 14.4444C20.8531 14.4444 21.1513 14.1426 21.1513 13.7706C21.1513 13.3986 20.8531 13.0968 20.4871 13.0968Z" fill="url(#paint0_linear_71_2329)"/>
<path fill-rule="evenodd" clip-rule="evenodd" d="M33.7064 13.1645V9.3532C33.7064 8.4348 33.6935 7.41801 33.6741 6.60458L33.7064 6.59146C34.185 7.33273 34.696 8.09369 35.2198 8.83497L36.6039 10.803L37.9751 8.83497C38.486 8.09369 39.0099 7.33273 39.4885 6.59146L39.5208 6.60458C39.5079 7.41145 39.4885 8.42824 39.4885 9.3532V13.1645H42.7676V1.47469H39.6437L36.6815 5.73866L33.7064 1.47469H30.5566V13.1645H33.7064ZM43.7054 13.1645H47.0945L47.9418 10.7767H51.8935L52.7084 13.1645H56.2721L51.6089 1.47469H48.3751L43.7119 13.1645H43.7054ZM49.9661 5.02363C50.186 5.75178 50.393 6.41434 50.6646 7.20153L51.0462 8.31673H48.8149L49.2159 7.20153C49.4875 6.44058 49.7074 5.7649 49.9338 5.02363H49.9661ZM58.7234 13.1645V7.92969L54.2477 1.46813H58.0701L59.1179 3.11468C59.5448 3.77724 59.991 4.48571 60.392 5.14827H60.4244C60.8383 4.47259 61.2522 3.79035 61.6662 3.14748L62.7333 1.46813H66.4587L62.0025 7.86409V13.1645H58.7234ZM67.1313 13.1645H70.5075C73.2756 13.1645 75.0478 12.6004 76.1926 11.5508C77.2921 10.534 77.8353 9.07768 77.8353 7.33273C77.8353 5.36475 77.1368 3.77724 75.8627 2.81293C74.6338 1.87485 72.8358 1.47469 70.4493 1.47469H67.1378V13.1645H67.1313ZM70.4105 10.3569V4.28235H70.5204C71.8075 4.28235 72.8617 4.41355 73.5602 4.94491C74.2134 5.44347 74.5498 6.23722 74.5498 7.33273C74.5498 8.09369 74.3881 8.80216 73.9612 9.33352C73.4697 9.93047 72.6224 10.3503 70.5398 10.3503H70.4105V10.3569ZM77.6542 13.1645L82.3174 1.47469H85.5513L90.2145 13.1645H86.6508L85.8359 10.7767H81.8841L81.0433 13.1645H77.6542ZM83.915 5.02363H83.8826C83.6627 5.7649 83.4363 6.44714 83.1647 7.20153L82.7637 8.31673H84.9951L84.6135 7.20153C84.3418 6.40778 84.1349 5.74522 83.915 5.02363ZM92.6722 13.1645H95.9513V7.86409L100.408 1.46813H96.6822L95.615 3.14748C95.201 3.79035 94.7871 4.47259 94.3732 5.14827H94.3408C93.9399 4.48571 93.5001 3.77724 93.0667 3.11468L92.019 1.46813H88.1966L92.6722 7.92969V13.1645ZM104.437 7.38521C104.437 10.7898 107.05 13.3417 110.963 13.3417C112.347 13.3417 113.763 13.0202 114.83 12.502V6.76858H110.083V9.20888H111.661V10.4553C111.487 10.5012 111.202 10.534 110.963 10.534C108.938 10.534 107.716 9.11048 107.716 7.38521C107.716 5.65994 108.971 4.24955 111.027 4.24955C112.192 4.24955 113.433 4.70219 114.449 5.33195V2.11757C113.492 1.63213 112.25 1.29102 110.898 1.29102C107.153 1.29102 104.43 3.90844 104.43 7.37865L104.437 7.38521ZM116.57 13.1645H124.661V10.3569H119.849V1.47469H116.57V13.1645ZM125.327 7.31961C125.327 10.698 128.018 13.3417 131.491 13.3417C134.964 13.3417 137.655 10.6914 137.655 7.31961C137.655 3.94779 134.964 1.29757 131.491 1.29757C128.018 1.29757 125.327 3.94779 125.327 7.31961ZM128.607 7.31961C128.607 5.62714 129.861 4.28235 131.491 4.28235C133.121 4.28235 134.376 5.62058 134.376 7.31961C134.376 9.01864 133.115 10.3569 131.491 10.3569C129.868 10.3569 128.607 9.01864 128.607 7.31961ZM139.071 13.1645H142.816C144.22 13.1645 145.377 12.9677 146.257 12.5676C147.576 11.9706 148.262 10.921 148.262 9.56312C148.262 8.20521 147.641 7.23433 146.031 6.68986V6.65706C147.162 6.2241 147.783 5.50906 147.783 4.41355C147.783 3.31804 147.227 2.603 146.399 2.13725C145.604 1.68461 144.472 1.47469 142.641 1.47469H139.078V13.1645H139.071ZM142.35 6.13882V4.11836H142.732C143.418 4.11836 143.78 4.16427 144.019 4.29547C144.368 4.47259 144.498 4.74811 144.498 5.12203C144.498 5.8305 144.038 6.13882 143.049 6.13882H142.35ZM142.35 10.5143V8.27081H143.385C144.433 8.27081 144.976 8.61193 144.976 9.39912C144.976 9.81896 144.834 10.1076 144.517 10.2847C144.245 10.429 143.767 10.5078 142.829 10.5078H142.35V10.5143ZM148.404 13.1645H151.793L152.64 10.7767H156.592L157.407 13.1645H160.971L156.308 1.47469H153.074L148.411 13.1645H148.404ZM154.665 5.02363C154.885 5.75178 155.092 6.41434 155.363 7.20153L155.745 8.31673H153.514L153.915 7.20153C154.186 6.44058 154.406 5.7649 154.633 5.02363H154.665ZM161.909 13.1645H170V10.3569H165.188V1.47469H161.909V13.1645Z" fill="white"/>
<defs>
<linearGradient id="paint0_linear_71_2329" x1="13.8738" y1="15.7851" x2="6.36155" y2="-0.602181" gradientUnits="userSpaceOnUse">
<stop stop-color="white"/>
<stop offset="1" stop-color="white"/>
</linearGradient>
</defs>
</svg>
