<svg width="250" height="45" viewBox="0 0 185 34" xmlns="http://www.w3.org/2000/svg">
  <!-- Icon (centered at y=17) -->
  <g fill="black">
    <path d="M19.5986 18.5005C18.7702 19.9354 16.9354 20.427 15.5005 19.5986C14.0656 18.7701 13.574 16.9354 14.4024 15.5005C15.2309 14.0656 17.0656 13.574 18.5005 14.4024C19.9354 15.2308 20.427 17.0656 19.5986 18.5005Z" />
    <path d="M23.2324 10.2074C22.6801 11.1639 21.4569 11.4917 20.5003 10.9394C19.5437 10.3871 19.216 9.16395 19.7683 8.20736C20.3205 7.25078 21.5437 6.92303 22.5003 7.47531C23.4569 8.0276 23.7846 9.25078 23.2324 10.2074Z" />
    <path d="M19.7683 25.7933C19.216 24.8367 19.5437 23.6135 20.5003 23.0612C21.4569 22.5089 22.6801 22.8367 23.2324 23.7933C23.7847 24.7498 23.4569 25.973 22.5003 26.5253C21.5437 27.0776 20.3206 26.7498 19.7683 25.7933Z" />
    <path d="M26 19C24.8954 19 24 18.1046 24 17C24 15.8955 24.8954 15 26 15C27.1046 15 28 15.8955 28 17C28 18.1046 27.1046 19 26 19Z" />
    <path d="M14.2324 25.7933C13.6801 26.7499 12.4569 27.0777 11.5003 26.5254C10.5437 25.9731 10.216 24.7499 10.7683 23.7933C11.3205 22.8367 12.5437 22.509 13.5003 23.0613C14.4569 23.6136 14.7846 24.8367 14.2324 25.7933Z" />
    <path d="M10.7682 10.2073C10.216 9.25078 10.5437 8.0276 11.5003 7.47532C12.4569 6.92303 13.6801 7.25078 14.2323 8.20737C14.7846 9.16395 14.4569 10.3871 13.5003 10.9394C12.5437 11.4917 11.3205 11.1639 10.7682 10.2073Z" />
    <path d="M8 19C6.89543 19 6 18.1045 6 17C6 15.8954 6.89543 15 8 15C9.10457 15 10 15.8954 10 17C10 18.1045 9.10457 19 8 19Z" />
    <path d="M25.8662 3.6447C25.5901 4.12299 24.9785 4.28686 24.5002 4.01072C24.0219 3.73458 23.858 3.12299 24.1342 2.6447C24.4103 2.1664 25.0219 2.00253 25.5002 2.27867C25.9785 2.55481 26.1424 3.1664 25.8662 3.6447Z" />
    <path d="M33 18C32.4477 18 32 17.5522 32 17C32 16.4477 32.4477 16 33 16C33.5522 16 34 16.4477 34 17C34 17.5522 33.5522 18 33 18Z" />
    <path d="M31.3556 9.86619C30.8773 10.1424 30.2658 9.97846 29.9896 9.50017C29.7135 9.02187 29.8773 8.41028 30.3556 8.13414C30.8339 7.858 31.4455 8.02187 31.7217 8.50017C31.9978 8.97846 31.8339 9.59005 31.3556 9.86619Z" />
    <path d="M30.3556 25.8662C29.8773 25.5901 29.7134 24.9785 29.9896 24.5002C30.2657 24.0219 30.8773 23.858 31.3556 24.1342C31.8339 24.4103 31.9978 25.0219 31.7216 25.5002C31.4455 25.9785 30.8339 26.1424 30.3556 25.8662Z" />
    <path d="M16 33C16 32.4477 16.4477 32 17 32C17.5523 32 18 32.4477 18 33C18 33.5523 17.5523 34 17 34C16.4477 34 16 33.5523 16 33Z" />
    <path d="M24.1341 31.3557C23.858 30.8774 24.0219 30.2658 24.5002 29.9896C24.9785 29.7135 25.5901 29.8774 25.8662 30.3557C26.1423 30.834 25.9785 31.4455 25.5002 31.7217C25.0219 31.9978 24.4103 31.834 24.1341 31.3557Z" />
    <path d="M9.8662 31.3556C9.59005 31.8339 8.97846 31.9978 8.50017 31.7216C8.02188 31.4455 7.858 30.8339 8.13415 30.3556C8.41029 29.8773 9.02188 29.7134 9.50017 29.9896C9.97846 30.2657 10.1424 30.8773 9.8662 31.3556Z" />
    <path d="M1 18C0.447715 18 -3.44684e-08 17.5523 0 17C3.44684e-08 16.4477 0.447715 16 1 16C1.55228 16 2 16.4477 2 17C2 17.5523 1.55228 18 1 18Z" />
    <path d="M3.6447 25.8662C3.1664 26.1424 2.55481 25.9785 2.27867 25.5002C2.00253 25.0219 2.1664 24.4103 2.6447 24.1342C3.12299 23.858 3.73458 24.0219 4.01072 24.5002C4.28686 24.9785 4.12299 25.5901 3.6447 25.8662Z" />
    <path d="M2.6447 9.8662C2.1664 9.59005 2.00253 8.97846 2.27867 8.50017C2.55481 8.02188 3.1664 7.858 3.6447 8.13415C4.12299 8.41029 4.28686 9.02188 4.01072 9.50017C3.73458 9.97846 3.12299 10.1424 2.6447 9.8662Z" />
    <path d="M16 1C16 0.447715 16.4477 -4.87226e-08 17 0C17.5523 4.87226e-08 18 0.447715 18 1C18 1.55228 17.5523 2 17 2C16.4477 2 16 1.55228 16 1Z" />
    <path d="M8.13415 3.6447C7.858 3.16641 8.02188 2.55482 8.50017 2.27867C8.97846 2.00253 9.59005 2.16641 9.8662 2.6447C10.1424 3.12299 9.97846 3.73458 9.50017 4.01072C9.02188 4.28687 8.41029 4.12299 8.13415 3.6447Z" />
  </g>
  <g fill="black" transform="translate(0, 0)">
    <path d="M 43.769 11.065 C 42.253 11.368 40.626 12.631 39.909 14.086 C 38.767 16.42 39.242 19.552 40.98 21.229 C 42.213 22.411 43.708 22.947 45.516 22.846 C 46.729 22.765 47.82 22.31 48.79 21.451 C 49.376 20.926 50.103 19.875 50.285 19.289 C 50.356 19.016 50.346 19.016 49.285 19.016 C 48.305 19.016 48.204 19.037 48.133 19.279 C 48.083 19.41 47.87 19.724 47.648 19.976 C 46.668 21.067 44.769 21.35 43.273 20.623 C 41.829 19.905 41.162 18.592 41.263 16.672 C 41.334 15.319 41.718 14.44 42.536 13.702 C 43.93 12.449 46.294 12.51 47.547 13.854 C 47.84 14.167 48.073 14.46 48.073 14.541 C 48.073 14.611 48.477 14.662 49.083 14.662 C 50.255 14.662 50.265 14.642 49.78 13.651 C 48.78 11.732 46.183 10.61 43.769 11.065 Z" />
    <path d="M 59.075 11.156 C 54.569 12.308 53.043 17.915 56.357 21.138 C 57.711 22.462 58.994 22.926 60.944 22.846 C 62.47 22.765 63.248 22.492 64.44 21.603 C 65.986 20.431 66.733 18.855 66.713 16.773 C 66.693 14.965 66.168 13.803 64.844 12.57 C 63.329 11.166 61.136 10.631 59.075 11.156 Z M 62.571 13.197 C 63.339 13.591 64.046 14.288 64.43 15.036 C 64.844 15.884 64.885 17.572 64.501 18.582 C 63.905 20.148 62.49 21.057 60.651 21.057 C 58.711 21.057 57.337 20.087 56.721 18.228 C 56.458 17.43 56.529 15.935 56.903 15.137 C 57.358 14.116 58.317 13.268 59.459 12.904 C 59.631 12.843 60.247 12.823 60.843 12.843 C 61.702 12.874 62.045 12.944 62.571 13.197 Z" />
    <path d="M 129.152 11.156 C 127 11.732 125.313 13.429 124.878 15.51 C 123.999 19.602 127.02 23.048 131.314 22.846 C 132.304 22.795 132.537 22.734 133.426 22.31 C 135.133 21.471 136.376 19.976 136.74 18.289 C 137.275 15.844 136.426 13.53 134.476 12.116 C 133.032 11.085 130.88 10.691 129.152 11.156 Z M 132.587 13.136 C 133.426 13.49 134.113 14.167 134.547 14.995 C 134.881 15.642 134.921 15.844 134.921 16.905 C 134.921 17.905 134.87 18.178 134.588 18.764 C 133.981 20.006 132.981 20.764 131.567 21.017 C 130.031 21.28 128.556 20.754 127.596 19.602 C 126.161 17.885 126.444 14.995 128.172 13.631 C 129.253 12.772 131.264 12.55 132.587 13.136 Z" />
    <path d="M 100.499 11.277 L 99.711 11.318 L 98.64 13.763 C 98.054 15.106 97.064 17.42 96.457 18.885 C 95.851 20.36 95.245 21.775 95.114 22.027 C 94.993 22.27 94.881 22.522 94.881 22.563 C 94.881 22.593 95.356 22.623 95.942 22.623 L 97.003 22.623 L 97.559 21.249 L 98.104 19.885 L 103.035 19.885 L 103.58 21.128 C 103.873 21.815 104.116 22.431 104.116 22.492 C 104.116 22.573 104.591 22.623 105.247 22.623 L 106.379 22.623 L 105.924 21.593 C 105.682 21.027 104.722 18.804 103.793 16.652 C 101.711 11.772 101.509 11.338 101.378 11.287 C 101.317 11.267 100.913 11.257 100.499 11.277 Z M 101.428 16.006 C 101.873 17.077 102.226 17.996 102.216 18.046 C 102.216 18.107 101.469 18.147 100.559 18.147 C 99.024 18.147 98.902 18.127 98.973 17.915 C 99.67 16.127 100.519 14.035 100.57 14.035 C 100.61 14.035 100.984 14.924 101.428 16.006 Z" />
    <path d="M 181.972 11.277 L 180.932 11.318 L 179.527 13.358 C 178.739 14.49 178.082 15.409 178.062 15.409 C 178.032 15.409 177.426 14.551 176.718 13.51 C 176.011 12.469 175.365 11.54 175.284 11.449 C 175.173 11.338 174.799 11.307 173.96 11.328 L 172.778 11.368 L 174.758 14.076 C 175.85 15.561 176.729 16.824 176.729 16.885 C 176.729 16.945 176.072 17.915 175.253 19.037 C 174.445 20.148 173.526 21.411 173.223 21.835 L 172.667 22.623 L 175.031 22.623 L 176.466 20.572 C 177.254 19.441 177.931 18.521 177.981 18.521 C 178.022 18.521 178.709 19.42 179.497 20.522 C 180.295 21.613 181.002 22.542 181.093 22.573 C 181.174 22.603 181.74 22.623 182.346 22.593 L 183.457 22.563 L 182.71 21.562 C 181.356 19.764 179.83 17.723 179.527 17.299 L 179.234 16.905 L 180.921 14.621 C 181.841 13.379 182.791 12.126 183.023 11.853 C 183.528 11.247 183.498 11.227 181.972 11.277 Z" />
    <path d="M 71.856 16.763 C 71.856 19.774 71.886 22.31 71.927 22.421 C 71.987 22.593 72.422 22.623 75.412 22.623 L 78.807 22.623 L 78.807 20.875 L 73.877 20.875 L 73.846 16.117 L 73.816 11.368 L 71.856 11.287 L 71.856 16.763 Z" />
    <path d="M 83.869 16.965 L 83.869 22.623 L 90.83 22.623 L 90.83 20.875 L 85.798 20.875 L 85.809 16.096 L 85.829 11.307 L 83.869 11.307 L 83.869 16.965 Z" />
    <path d="M 111.572 16.975 L 111.572 22.633 L 114.654 22.593 L 117.715 22.563 L 118.382 22.199 C 119.523 21.572 120.14 20.36 120.018 18.976 C 119.897 17.784 119.21 16.915 118.008 16.491 C 117.887 16.45 117.927 16.339 118.119 16.137 C 119.321 14.844 118.867 12.409 117.24 11.6 C 116.674 11.318 116.533 11.307 114.108 11.307 L 111.572 11.307 L 111.572 16.975 Z M 116.23 13.167 C 116.876 13.55 117.089 14.429 116.705 15.157 C 116.371 15.793 116.068 15.905 114.714 15.905 L 113.472 15.905 L 113.472 12.924 L 114.654 12.924 C 115.583 12.924 115.886 12.975 116.23 13.167 Z M 117.24 17.895 C 118.079 18.269 118.382 19.188 117.957 20.067 C 117.634 20.734 117.179 20.865 115.25 20.896 L 113.542 20.906 L 113.502 19.279 L 113.461 17.642 L 115.078 17.642 C 116.412 17.642 116.806 17.693 117.24 17.895 Z" />
    <path d="M 151.682 16.965 L 151.682 22.623 L 153.582 22.623 L 153.602 20.532 L 153.642 18.451 L 154.4 18.42 L 155.168 18.38 L 155.4 18.855 C 155.532 19.117 156.057 20.067 156.593 20.966 L 157.563 22.623 L 158.674 22.623 C 159.28 22.623 159.775 22.583 159.775 22.542 C 159.775 22.512 159.674 22.32 159.533 22.148 C 159.149 21.593 157.209 18.259 157.259 18.228 C 157.29 18.208 157.552 18.097 157.845 17.966 C 159.624 17.208 160.321 14.52 159.179 12.772 C 158.856 12.237 157.957 11.611 157.249 11.429 C 157.007 11.368 155.653 11.307 154.249 11.307 L 151.682 11.307 L 151.682 16.965 Z M 156.34 13.055 C 157.259 13.247 157.664 13.712 157.724 14.652 C 157.775 15.268 157.724 15.47 157.502 15.854 C 157.088 16.501 156.613 16.652 154.966 16.652 L 153.582 16.652 L 153.582 14.874 C 153.582 13.894 153.612 13.045 153.663 13.005 C 153.794 12.874 155.653 12.904 156.34 13.055 Z" />
    <path d="M 165.473 16.965 L 165.473 22.623 L 167.373 22.623 L 167.373 11.307 L 165.473 11.307 L 165.473 16.965 Z" />
    <path d="M 142.994 12.813 L 141.953 13.833 L 142.195 14.157 C 142.317 14.328 142.761 14.803 143.175 15.207 C 143.751 15.753 143.994 15.915 144.176 15.854 C 144.58 15.733 146.257 13.965 146.176 13.753 C 146.115 13.601 144.176 11.803 144.064 11.803 C 144.044 11.803 143.559 12.257 142.994 12.813 Z" />
    <path d="M 142.973 18.915 C 142.205 19.683 141.973 19.986 142.064 20.118 C 142.125 20.229 142.61 20.744 143.125 21.249 L 144.095 22.189 L 145.166 21.128 C 145.762 20.542 146.237 20.037 146.237 19.976 C 146.237 19.845 144.216 17.895 144.095 17.895 C 144.044 17.895 143.549 18.36 142.973 18.915 Z" />
  </g>
</svg>
