<svg width="33" height="65" viewBox="0 0 33 65" fill="none" xmlns="http://www.w3.org/2000/svg">
<g clip-path="url(#clip0_310_29269)">
<mask id="mask0_310_29269" style="mask-type:luminance" maskUnits="userSpaceOnUse" x="0" y="0" width="33" height="65">
<path d="M32.6493 0H0V65H32.6493V0Z" fill="white"/>
</mask>
<g mask="url(#mask0_310_29269)">
<path d="M24.142 55.803C25.933 56.2003 23.8782 56.0144 25.0879 56.5311C25.2388 56.5703 25.0341 56.3299 25.0583 56.2514C25.1 56.0758 25.5304 56.0519 25.6571 56.1219C26.0771 56.5038 25.2666 56.4237 25.8705 56.6777C25.7282 56.9983 25.2319 56.9574 24.982 57.2251C24.5742 57.3155 24.4006 57.37 24.4648 57.7946C23.1615 57.4519 23.8782 57.4962 23.6318 58.0436C23.3992 57.9123 23.283 58.0998 23.2517 58.3027C22.4465 57.8986 23.1146 57.0017 23.7429 56.8431C23.8782 56.7476 23.6752 56.4885 23.7411 56.3333C24.0119 56.2259 24.0327 55.8047 24.142 55.803ZM21.7957 56.26C22.0924 56.439 22.3753 55.8473 22.6096 56.2225C23.2569 56.011 23.8557 55.9871 23.0574 56.6539C22.7467 57.0341 22.4534 57.6787 21.8616 57.5201C21.8096 57.8782 21.4798 58.0708 21.1431 58.0095C19.8485 57.4297 22.0907 57.4792 21.813 56.8704C21.6412 56.8772 21.4468 57.0495 21.3132 56.8602C21.4538 56.8022 21.7367 56.792 21.8651 56.6829C21.5006 56.3981 20.9522 55.6666 21.7957 56.26ZM20.5982 57.0358C20.9123 57.0392 20.803 57.191 20.7145 57.4229C20.4316 57.4007 20.3292 57.162 20.5982 57.0358ZM24.8154 57.5798L24.8258 57.7929C24.6418 57.7707 24.595 57.4757 24.8154 57.5798ZM22.0803 56.1031C21.8599 56.1457 21.7748 56.04 21.813 55.8286C22.0213 55.7757 22.2504 55.8848 22.0803 56.1031ZM22.7814 58.1152C22.5923 58.2499 22.627 57.9941 22.6009 57.8782C22.7137 57.8969 22.8179 57.9992 22.7814 58.1152Z" fill="white"/>
<path d="M26.1707 13.8577C25.6813 14.6899 25.7993 14.2056 25.8028 15.1161C25.6084 15.1571 25.8184 15.4503 25.7056 15.597C25.6744 15.7709 25.3151 16.0369 25.5164 16.187C25.6518 16.4717 25.3498 16.6712 25.2231 16.8673C25.4331 17.4334 25.0687 18.0729 25.2526 18.6884C25.1832 18.9647 24.9941 18.8368 24.8379 18.9578C24.371 20.0184 25.211 20.8199 24.673 21.0722C24.8344 22.0049 26.1082 22.0578 26.6688 22.6853C27.2849 23.2088 26.313 23.6282 26.6167 24.2165C26.7625 24.5627 27.1755 24.8969 27.5747 24.8048C28.1457 25.9063 26.8389 26.8646 26.3356 27.7172C25.1485 29.5656 21.7106 29.5417 19.6436 29.7855C18.7117 29.7685 18.2101 28.7488 18.5121 30.2527C18.6839 30.2749 19.1143 30.5597 18.7013 30.5153C18.8037 30.6211 18.9113 30.7131 18.8592 30.8768C18.8922 31.3781 18.349 31.5845 18.3386 32.0926C18.2205 32.3978 18.4271 32.7764 18.5919 33.0253C18.3351 33.8097 17.0838 33.9904 16.3445 33.9802C15.3553 33.8728 13.5365 32.2529 13.8836 34.1354C14.2567 34.8703 13.6354 36.1491 14.8485 36.1594C14.9127 36.3197 14.6212 36.543 15.0412 36.5192C15.6191 36.4851 15.8672 36.3214 15.3553 36.0861C16.2838 35.5387 16.5701 36.3776 16.3098 37.1501C15.331 37.902 15.5861 36.9216 14.9318 36.6811C13.5591 37.0222 14.2133 37.4127 15.2078 37.6036C14.6351 37.989 14.0606 38.1459 13.6823 38.8348C13.5521 39.2849 13.6649 39.863 13.6597 40.2961C13.7205 40.8008 12.5872 41.0941 13.1148 41.5408C13.0766 42.1956 11.9763 41.4129 11.6535 42.0507C11.5945 42.2468 11.1589 42.228 11.0184 42.2826C9.48076 43.8223 9.47382 44.9869 11.3984 46.1839C13.1738 46.0919 13.2831 47.2531 12.1794 47.9709C14.2168 47.7271 9.62481 50.1655 9.70811 51.0931C9.91636 52.1179 8.91674 54.1623 8.10107 52.2509C8.21387 52.5595 8.06462 52.7726 7.70017 52.7505C7.38953 52.95 8.11495 52.7147 8.21561 52.8442C8.72931 53.0915 8.33362 53.3728 7.96744 53.4752C7.24201 53.8264 7.49018 54.8137 6.98343 55.2707C7.41556 54.8853 7.41209 55.9527 7.50927 56.2239C7.56134 56.6348 7.03376 56.4182 6.79773 56.5547C7.58216 56.7252 7.72968 56.7627 8.06289 57.5863C8.66509 58.3928 8.71022 58.403 7.68108 58.0586C6.14867 57.4942 4.43576 57.5266 2.78881 57.53C2.78881 57.0236 1.88463 56.8155 2.05644 56.2818C2.27337 55.7072 1.94016 55.5299 2.20395 54.9518C2.15189 53.6798 1.35531 54.517 0.770462 54.546C0.642037 53.9833 0.340066 53.4206 0.190816 52.8937C0.157842 52.7164 0.164784 52.5049 0.251558 52.348C0.208171 52.1093 0.0190046 51.8382 0.114456 51.5893C0.258499 50.9635 0.872854 51.4938 0.777404 50.9601C0.942273 50.2814 1.97834 50.3394 1.66075 49.4476C2.03214 49.1083 2.48163 48.595 1.82389 48.2284C1.79959 47.8482 2.05644 47.381 2.19354 47.0638C2.47816 46.9274 2.5146 46.5727 2.81137 46.5267C2.8131 46.3527 2.66385 46.1481 2.72633 45.9486C2.67426 45.6042 3.22788 45.5411 3.15325 45.1711C3.09078 44.3236 2.63435 44.4924 3.25738 43.8274C3.06648 43.5972 2.90335 43.1948 3.15672 42.9339C3.97934 42.6526 3.70166 42.303 3.31465 41.7608C2.83913 41.6823 1.98181 41.3686 3.00921 41.3311C3.62877 41.2203 3.79711 41.5715 4.02793 40.8826C3.90645 40.1903 2.30982 41.0242 3.11854 39.6873C3.25044 39.5458 3.05433 39.3429 2.99012 39.2099C3.11507 39.1195 3.09945 39.0019 3.06127 38.874C2.63435 38.4733 2.8426 38.492 3.06127 38.1527C2.9988 37.8628 2.46427 38.0078 2.41394 37.6497C2.55105 37.3121 2.28899 36.8585 2.56493 36.6044C2.58228 36.4066 2.34973 36.2225 2.54758 36.0656C2.62047 35.9394 2.63088 35.8917 2.74368 35.9889C3.41704 35.8985 2.76972 35.2215 2.82004 34.8703C3.0283 34.1081 2.45039 33.0117 3.12896 32.4575C3.19838 32.2699 2.84608 32.1761 2.97797 31.9562C3.04739 31.8863 3.19317 31.8948 3.21052 31.755C3.31812 31.4941 3.05433 31.1837 3.15672 30.9501C3.61836 31.0013 3.62877 30.1351 3.59233 29.76C3.69819 29.4786 4.08693 29.3303 4.36634 29.2876C4.73947 28.9227 4.1095 28.4913 4.24139 27.9661C3.94983 27.429 3.92727 26.7742 4.09388 26.2286C4.08346 25.9541 3.87868 25.6676 4.11123 25.4306C4.198 25.1424 4.34725 24.9276 4.69608 24.89C4.70997 24.5405 5.10045 24.4962 5.25837 24.2813C5.25837 23.7698 5.32953 23.1713 5.01194 22.791C5.34862 22.6393 5.39027 22.1891 5.4458 21.8583C5.63497 21.611 5.71133 21.1012 6.00636 21.0245C6.40031 20.7551 5.85364 19.8906 6.24932 19.4677C6.18338 18.9374 5.44407 19.5444 5.88314 18.5554C5.56034 18.4156 5.74257 17.9143 5.54299 17.7557C5.45622 17.43 5.17334 17.1862 5.50307 16.9253C5.23234 16.7514 5.0935 16.586 4.96161 16.2467C5.02582 16.0437 4.93905 15.4333 5.21672 15.481C5.40762 15.4384 5.4163 15.2321 5.35035 15.0889C5.4163 14.8109 5.62976 14.4716 5.64191 14.1971C5.79984 14.1885 6.0914 14.1885 6.10181 13.9004C6.33783 13.7452 5.88661 13.7367 6.00809 13.5627C6.19553 13.0444 5.5482 12.3231 6.20073 12.0042C6.32742 11.3375 6.46973 10.6913 6.99731 10.2599C7.38779 10.0075 7.35308 9.45505 7.64811 9.143C7.73141 8.95885 7.83728 8.45924 8.12189 8.71501C8.31627 8.59906 8.74319 8.58201 8.66683 8.26315C7.70017 7.31338 8.79699 7.37136 8.35271 6.38237C8.20693 6.09079 8.16702 5.71054 8.37701 5.4326C8.50196 5.46671 8.63038 5.30983 8.48808 5.24845C8.41172 4.98415 8.12883 4.85967 8.35792 4.55957C8.90979 3.80248 10.3554 4.02415 10.463 2.94138C10.548 2.54749 11.0444 1.88078 10.5029 1.63012C10.5828 1.50735 10.7702 1.3573 10.7667 1.19701C10.8483 1.07595 11.1745 1.02309 11.2023 0.8611C11.1971 0.637725 11.4644 0.6292 11.6275 0.564404C12.0267 0.627495 11.9052 0.0136412 12.1707 0C13.3959 1.12369 14.5899 -0.381953 15.1922 1.63865C15.3397 1.20213 15.541 0.562699 15.9506 0.322273C16.4486 0.445044 17.5159 0.0153463 17.7745 0.566109C18.3038 0.936126 18.7742 1.4238 19.1091 2.01207C19.5065 2.4162 20.0428 2.63616 20.4871 2.97719C21.0146 3.70188 22.252 3.34891 22.8994 3.96788C23.8053 4.89037 25.2769 4.80852 26.11 5.70202C26.4779 6.0618 25.8444 6.30564 25.749 6.65349C25.539 7.08319 25.0392 7.22471 25.2162 7.8505C24.9056 8.39444 23.7671 9.19757 25.2544 8.92134C25.7733 8.94691 26.4675 9.19757 26.9812 9.25043C27.186 9.15835 27.4307 9.23338 27.6285 9.28965C27.7673 9.24531 27.9947 9.23338 28.0832 9.39025C28.3678 9.14471 28.7357 8.74571 29.1401 9.16006C29.5254 9.18734 29.39 8.69967 29.6954 8.5786C29.7319 8.35864 30.0634 8.4456 30.2091 8.35011C30.1918 8.24951 30.3324 8.17619 30.4087 8.14379C31.1793 7.77207 30.8513 6.43011 31.1862 6.10955C31.3372 6.22209 31.5784 6.12319 31.7294 6.03281C32.0991 6.05498 32.3559 6.35679 32.3559 6.74045C32.7985 7.19743 32.3629 7.73967 32.5295 8.26997C32.4288 8.81732 31.8717 8.75935 31.6426 9.10208C31.3372 9.23508 31.0144 9.29988 30.7124 9.38343C30.5701 9.49768 30.6066 9.75345 30.3671 9.74663C30.3167 9.9683 30.0373 9.93078 29.8655 10.0621C29.7735 10.3707 28.9718 10.352 29.3345 10.7169C29.2963 10.9061 29.0047 10.606 28.9527 10.8089C28.8832 10.9897 28.6264 11.2403 28.4303 11.3802C28.2168 11.6666 28.0728 11.9804 27.7604 12.1696C27.3925 12.8739 26.674 13.2899 26.1707 13.8577ZM8.12189 64.6848C8.35271 63.8237 7.62381 57.414 8.73451 59.9581L8.79699 60.2003C8.52973 59.762 8.08545 60.6419 8.54708 60.7289C8.98615 60.6163 9.07119 61.104 9.17532 61.4007C9.54845 61.7758 9.95107 62.2618 10.3433 62.625C11.7663 63.5543 12.0423 64.134 13.8003 64.2295C13.5955 65.2015 12.4709 64.6967 11.8063 65.0855C11.4366 65.2628 11.001 64.7854 10.6157 64.811C9.85562 64.8349 8.82649 64.4546 8.12189 64.6848ZM14.8294 64.3301C15.1245 64.4989 15.9731 64.175 16.0009 64.4631C15.7371 64.6558 15.2598 64.4052 14.9856 64.6507C14.7913 64.6643 14.5986 64.9491 14.4893 64.6149C14.5604 64.4529 14.7791 64.5058 14.8294 64.3301ZM19.1976 30.1163C19.2861 30.384 18.8939 30.1095 18.8592 29.9987C18.8141 29.8964 19.1803 30.0311 19.1976 30.1163Z" fill="white"/>
</g>
</g>
<defs>
<clipPath id="clip0_310_29269">
<rect width="33" height="65" fill="white"/>
</clipPath>
</defs>
</svg>
