<svg width="79" height="65" viewBox="0 0 79 65" fill="none" xmlns="http://www.w3.org/2000/svg">
<path d="M0.370117 8.51785C2.30183 8.35859 4.31694 8.18995 6.24866 8.02835C6.7976 7.87845 6.36447 8.36093 6.25792 8.58811C7.34886 8.96753 8.82197 9.47343 9.91059 9.84817C12.7803 10.7405 15.6501 12.2933 18.7214 11.9303C20.1783 11.928 21.8043 11.9233 23.2589 11.9209C23.0527 10.3096 23.6457 10.6656 24.959 10.6632C25.8785 10.6843 26.9115 10.6445 27.8241 10.696C28.8502 11.8858 30.2284 12.9772 31.5648 13.8368C32.4705 14.7853 32.1485 16.5489 33.5243 17.0712C34.196 17.6497 35.2175 17.912 35.9841 18.3875C36.4428 18.5186 36.54 17.8839 36.9222 17.7949C36.9709 16.8323 37.6773 16.2 38.5227 15.9892C39.3149 16.5419 40.5378 15.7643 41.0011 16.645C43.1343 17.9284 43.3451 20.7436 45.388 22.1091C45.8605 22.3784 45.469 22.8843 45.747 23.1958C45.652 23.7275 46.0967 24.0273 46.326 24.4653C46.4094 24.9712 46.641 25.545 47.2409 25.4864C47.8848 25.8073 48.5704 26.1305 49.2699 26.3343C49.8698 26.3155 50.5832 26.5474 51.0858 26.8495C52.281 25.9736 51.2943 28.0955 50.9608 28.5476C50.1339 30.981 49.9092 33.8407 50.0412 36.2906C50.0273 37.0353 50.7199 37.7099 51.2434 38.1385C51.1044 38.9254 50.7569 38.9793 51.0673 38.1315C50.6944 37.9464 50.3261 37.293 50.1154 36.944C50.2937 38.1502 51.2572 39.162 51.5723 40.3166C52.1675 41.216 53.541 42.0826 53.6731 43.2536C53.8421 43.9703 54.5671 44.3123 54.8427 44.9564C55.4519 45.385 54.8752 44.9985 54.8242 45.1531C54.9609 45.3311 55.9893 45.6121 55.5052 45.3967C55.4913 45.3733 55.2411 45.2608 55.3963 45.2679C56.1468 45.4178 57.0015 45.6145 57.7056 45.926C57.9326 46.1649 58.192 46.8371 58.5742 46.8043C59.3478 46.8371 60.1862 46.3569 60.9043 46.1368C61.9558 46.2726 62.8545 45.8768 63.7578 45.5161C64.1169 45.5583 65.5599 45.207 65.0387 45.7995C65.4765 46.3382 66.7017 46.0173 66.7434 45.4014C66.2895 45.1039 66.8986 44.8252 66.2547 45.1156C66.7203 44.6425 67.6954 44.3896 68.1285 43.797C67.934 43.0686 68.6335 42.6096 68.7887 42.0826C68.7493 41.2441 68.7678 40.3377 69.1199 39.5625C70.0742 38.7334 72.0962 38.717 73.245 38.4336C74.0604 37.9441 75.0702 37.9909 75.962 38.2064C76.3117 38.5039 78.211 38.3867 76.7379 38.1666C77.3216 37.8363 78.3013 38.2041 78.1994 38.984C78.6465 40.3916 76.0592 41.0122 76.5966 42.4995C76.5202 42.6494 75.6377 42.9726 76.0731 43.2841C76.27 43.2513 76.7541 43.0546 76.6128 43.4176C76.4831 43.7127 75.9041 43.5956 76.0453 44.0382C76.6151 43.5886 76.3743 44.249 76.2052 44.5746C76.0685 45.029 75.64 47.2657 75.2648 46.1087C74.5884 46.0384 75.7049 44.4598 74.6556 45.4037C74.6395 45.9658 74.2642 45.9986 73.8171 46.097C73.7037 46.4951 73.2867 46.9565 73.0899 47.3102C72.8536 47.6521 72.036 46.809 72.1773 47.6896C70.9636 48.0245 67.033 46.7902 67.4777 48.6124C67.6421 49.3595 66.8963 49.0387 66.4053 49.0949C66.9913 49.5399 67.5194 50.1324 68.2003 50.4673C68.2607 50.5751 68.4482 50.8069 68.3972 50.9615C68.5408 51.1372 68.974 51.0739 68.9554 51.3597C68.9879 52.526 67.7139 51.9241 66.8569 52.06C65.6293 51.7672 65.1962 52.519 64.6797 53.4933C64.3068 53.8048 64.3323 54.2592 64.6982 54.5403C64.2883 54.8541 64.5732 55.3811 64.3531 55.7886C63.561 55.4185 62.7387 54.1562 61.8933 53.6128C60.8973 52.8586 59.8782 51.9077 58.7039 51.5213C58.6228 51.9288 59.4312 51.807 59.6813 52.0834C60.0704 52.423 58.5116 51.704 58.5464 51.7719C57.7913 51.7321 58.1897 51.7204 58.1711 51.369C57.4253 51.8 57.7913 50.6266 57.1335 51.5447C57.4161 51.5072 58.1132 51.793 57.3165 51.7133C56.6517 51.7719 55.892 52.4605 55.2041 52.5167C54.0645 53.1889 52.6887 53.2146 51.5769 52.4628C49.5201 52.505 47.9682 50.8491 46.0226 50.5751C44.2577 50.1348 42.3977 49.3291 40.7903 48.4438C40.1001 48.0292 39.6021 47.0479 38.6571 47.3266C36.7717 47.0783 35.2661 46.2351 33.9598 44.9142C32.1925 44.2959 30.5017 43.2419 29.9273 41.3378C29.2579 40.6281 32.0188 40.9841 30.4299 40.1621C29.9875 40.1831 30.3974 39.9653 30.497 39.7756C31.5463 38.6795 30.6267 38.3493 30.1542 37.478C29.5613 35.6863 29.64 35.2202 27.9075 33.9016C27.3123 32.6111 25.2995 31.1613 24.5073 30.5547C24.7876 30.7702 25.4292 31.0021 24.9636 30.4681C24.5282 30.5243 23.7268 30.2971 23.7661 29.7327C23.6827 29.6273 22.8999 28.9106 23.1801 28.9644C23.3098 29.1143 23.5391 29.1588 23.7129 29.0652C23.2288 28.578 21.978 28.5101 21.7835 27.7302C20.6253 27.9737 21.2229 27.8356 21.5287 27.2102C21.2994 27.4374 20.9079 27.6505 20.586 27.5428C19.8425 27.2547 20.2061 25.4513 20.938 25.8237C20.7527 25.5942 20.5813 25.3834 20.5281 25.0695C20.0695 24.3575 18.9669 24.9267 18.8697 23.875C19.0133 23.4909 18.1331 23.4722 17.9571 23.3785C17.3525 23.0132 16.7943 22.1325 17.3085 21.4791C16.6252 21.2753 15.8424 21.4908 15.3768 20.7975C15.0641 20.0434 14.1261 19.7857 13.7717 19.0573C13.679 18.7575 13.2806 18.5983 13.1185 18.3266C13.0096 18.076 13.0583 17.6076 12.7595 17.4905C12.2661 16.8113 11.6454 15.7432 11.4161 14.7877C10.9876 14.1576 10.6425 13.455 10.661 12.7009C10.8069 12.654 10.983 12.4385 10.7513 12.2559C10.3506 12.0802 9.7554 12.0661 9.36628 11.8671C9.47746 11.3869 8.87293 11.2066 8.53244 11.0684C8.43516 11.4806 8.02751 11.4712 7.71945 11.2792C7.36276 10.9841 5.60012 9.97932 6.24171 10.5906C6.38532 10.9864 6.12822 11.9256 6.13285 12.3987C6.67021 13.2208 6.73506 14.249 6.77907 15.1905C7.3836 16.4248 9.19951 16.9213 9.58169 18.3172C9.59328 18.7552 10.1584 18.357 10.1051 18.8231C10.6772 18.9074 10.5429 19.952 11.298 19.9567C11.4416 20.9099 11.6245 21.9756 12.69 22.4042C12.8012 23.3949 13.8527 23.697 13.8875 24.6831C14.6449 25.3787 13.9269 24.5988 13.9917 24.1819C14.0126 24.032 14.6101 24.6058 14.6379 24.6058C14.9136 25.3951 15.2772 26.1703 15.3513 27.0627C15.935 27.681 16.1666 28.5148 16.7272 29.1752C17.0931 29.7865 16.5257 30.7023 17.2622 31.2339C17.5865 31.2433 17.561 31.3838 17.7231 31.5337C18.096 31.4119 17.6235 30.9201 17.9918 30.892C18.6079 31.3276 19.326 31.9342 19.4974 32.6861C20.3543 32.7891 20.3451 33.9367 19.6155 34.2084C18.0127 35.7566 18.8998 33.213 16.7017 32.1193C15.5714 31.1731 14.2951 30.5126 13.3432 29.5828C13.093 28.2524 13.7369 26.0766 11.8376 25.655C11.3906 25.2897 10.3923 24.7182 10.5614 23.964C10.3367 24.4606 9.28058 24.7791 9.01885 24.1678C8.55097 23.7017 7.86306 23.512 7.25158 23.231C7.16588 22.3808 5.96376 22.252 5.73446 21.5423C6.3552 21.6688 7.22842 21.6407 7.6546 21.5517C7.43224 21.8819 8.51623 22.1911 8.05067 21.8562C7.99508 20.9755 7.45077 21.5985 7.92096 21.0786C9.00032 19.5117 6.77444 18.5304 5.98924 17.4179C5.255 17.0619 4.1548 16.6754 3.90465 15.8041C3.54796 15.7011 3.91392 15.0617 3.73325 14.783C3.52248 14.5113 3.15652 14.4949 3.18663 14.0593C3.31633 13.5651 2.87162 13.1435 2.49871 12.9234C2.5404 12.3238 2.11885 11.8109 1.69499 11.4385C1.48884 11.2979 1.64403 10.867 1.40546 10.7733C1.69962 10.8061 1.64403 10.6492 1.66488 10.4454C1.01865 10.0613 0.636481 9.2158 0.370117 8.51785ZM77.8891 41.3823C77.3494 41.4947 78.0141 40.3846 78.3639 40.7476C78.2851 40.8905 77.9956 41.2511 77.8891 41.3823ZM27.6551 38.0237C27.5277 38.6936 26.9833 37.4546 27.567 37.8551C27.5879 37.8926 27.6342 37.9839 27.6551 38.0237ZM17.2159 29.1588C17.4614 29.7514 16.8314 29.2361 16.8777 28.9527C16.9565 28.9223 17.1858 29.0769 17.2159 29.1588ZM10.5707 18.2493C10.258 18.2282 9.57011 17.4858 9.44503 17.1204C9.36396 16.4599 10.1167 17.0923 10.0125 17.4624C10.529 17.4366 10.4757 17.8605 10.5707 18.2493ZM5.39629 20.9334C4.57404 21.0341 5.31059 20.6336 5.12993 20.1886C5.40556 19.9801 5.48199 20.7647 5.39629 20.9334ZM13.0166 18.3781C12.9772 18.973 12.5302 19.2564 12.1735 18.6826C12.1781 17.905 12.8568 17.268 13.0166 18.3781ZM78.4681 38.9816C78.6187 39.3189 78.2828 38.8809 78.4033 38.8762C78.4241 38.8973 78.4566 38.9535 78.4681 38.9816ZM65.7081 45.5185C64.909 45.7222 65.8586 45.2304 66.0509 45.2749C66.1482 45.3498 65.7104 45.4107 65.7081 45.5185ZM19.1731 31.4096C18.9901 31.4471 18.8975 31.0161 18.9554 30.899C18.9669 30.9599 19.2866 31.3487 19.1731 31.4096ZM6.61925 10.8646C6.50344 10.9068 6.33204 10.7499 6.38763 10.6281C6.4687 10.6047 6.67716 10.7639 6.61925 10.8646ZM15.847 26.4561C15.8516 26.4795 15.8956 26.5614 15.8632 26.5802C15.6872 26.353 15.6617 26.9268 15.5297 26.9479C15.4973 26.7746 15.8169 25.9595 15.847 26.4561ZM14.3114 30.7702C14.3855 31.1286 13.5632 30.3697 13.503 30.4025C13.8041 30.2245 14.1237 30.5828 14.3114 30.7702ZM13.3918 30.3697C13.1 30.365 13.1695 29.6952 12.7757 29.7256C12.9795 29.6085 13.0722 28.1283 13.1996 28.5733C12.9957 29.1729 13.049 29.8685 13.3918 30.3697Z" fill="white"/>
</svg>
