<svg width="44" height="65" viewBox="0 0 44 65" fill="none" xmlns="http://www.w3.org/2000/svg">
<g clip-path="url(#clip0_310_29278)">
<mask id="mask0_310_29278" style="mask-type:luminance" maskUnits="userSpaceOnUse" x="0" y="0" width="44" height="65">
<path d="M43.1587 0H0V65H43.1587V0Z" fill="white"/>
</mask>
<g mask="url(#mask0_310_29278)">
<path d="M23.0945 15.6914C23.228 16.5347 24.0168 16.9914 23.9379 17.8773C24.1351 18.3888 24.6599 18.675 24.4263 19.296C25.3606 20.3099 24.2321 21.6586 24.2443 22.7394C24.7236 23.7532 23.1825 25.7534 24.8389 25.796C25.5366 25.2389 26.2282 26.2497 27.0321 26.0853C28.8583 26.2192 30.4783 26.9286 31.8919 25.455C32.5623 26.0122 33.1387 26.8068 34.2369 26.5084C34.8891 26.618 35.6081 26.8829 35.4958 27.7019C35.7901 28.2468 36.4544 28.5239 35.9721 29.2394C36.0479 30.5119 36.8397 31.6749 36.5515 32.9415C37.2371 36.2143 38.2533 35.8855 41.023 34.5246C44.366 34.7347 42.5792 38.6286 42.1424 40.9972C40.4618 45.0372 42.4002 48.377 38.2685 51.047C37.0096 50.9801 36.3755 52.1644 36.0843 53.1751C35.7355 53.4948 35.2562 53.647 34.9225 53.1995C32.5987 51.933 32.987 54.9866 31.0971 53.7688C29.1951 53.8936 26.8258 53.6196 24.8844 52.9559C23.8772 52.2861 20.1186 53.8297 20.7405 51.9665C21.2532 51.7473 21.3199 51.1749 21.6779 50.84C22.1117 50.703 22.2269 50.5538 22.2876 50.1672C23.2159 49.607 22.7002 48.4592 22.9884 47.5641C23.6254 46.462 24.7418 45.8014 25.1695 44.4801C25.3364 43.8925 26.5832 43.6246 26.0432 42.7843C24.7509 40.5709 22.2573 40.4187 20.2005 39.5297C17.0335 38.3058 14.5914 35.2461 11.0391 35.2279C8.40295 34.6403 6.68594 32.4087 4.39256 31.1635C2.88487 30.0218 2.4541 27.5527 0.576322 26.8616C-0.69778 25.93 1.29831 23.4487 1.37718 22.0483C2.30243 19.9993 1.38629 17.4602 3.29744 15.8679C4.25302 14.8267 4.03763 12.6408 5.86688 12.8661C10.942 12.0502 16.991 9.48059 21.4777 13.064C22.6031 13.5633 23.583 14.3183 23.0945 15.6914Z" fill="white"/>
</g>
</g>
<defs>
<clipPath id="clip0_310_29278">
<rect width="44" height="65" fill="white"/>
</clipPath>
</defs>
</svg>
