<svg width="78" height="65" viewBox="0 0 78 65" fill="none" xmlns="http://www.w3.org/2000/svg">
<path d="M66.7082 20.7809C67.7617 20.5897 71.0012 21.2784 71.213 20.2629C71.4301 20.4672 71.667 19.9956 71.7855 20.3131C71.9021 20.2926 71.8339 20.1144 71.9165 20.055C72.008 20.0754 72.1157 19.9975 72.0385 19.8842C72.2521 19.3737 72.6146 19.5241 72.6092 18.6924C72.8874 17.8422 73.3253 17.0662 73.9104 16.3589C73.9355 16.203 74.1419 16.2735 74.246 16.3125C74.1832 16.4814 74.2424 16.6559 74.3968 16.7172C74.7862 16.8063 75.1954 16.2364 75.5167 16.5984C76.2597 17.1089 75.7895 18.2543 75.9331 19.0544C75.9492 19.5649 75.8128 19.5631 76.4015 19.6949C76.5343 19.8397 76.1807 19.875 76.4087 20.1052C76.2956 20.2834 76.4087 20.4207 76.5594 20.5117C76.6061 20.4839 76.633 20.4003 76.6958 20.4412C76.9166 20.4894 76.8412 20.8199 76.8376 20.9962C76.8771 21.0129 77.0189 21.0167 76.9973 21.1002C76.782 21.4882 76.3674 21.2227 76.1825 21.5513C75.9708 21.5996 75.8272 21.4715 75.7715 21.7722C75.3462 22.0692 75.6908 21.5866 75.278 21.6757C75.0698 21.9319 75.007 21.4436 74.9388 22.1194C74.7916 21.9504 74.4022 22.0191 74.7019 21.7908C74.4542 21.8298 74.7503 21.516 74.5816 21.5996C74.255 21.8093 74.3681 22.6689 73.8566 22.5779C73.6556 22.6577 73.6699 22.8861 73.573 22.6095C73.4922 22.7487 73.5228 22.8768 73.4671 22.6689C73.3738 22.4257 73.4007 22.8972 73.3002 22.8248C73.2087 22.6095 73.2859 22.9121 73.2392 22.9807C73.1459 22.8953 73.1315 22.9121 73.0184 22.9529C73.0795 22.654 72.6721 23.042 72.6254 23.1571C72.8623 23.3613 72.0906 23.7734 72.1283 24.102C71.9506 24.2357 71.8429 24.6125 71.9434 24.8223C71.9488 24.8947 72.0565 24.9485 72.1121 24.904C72.1875 24.8984 72.2 25.0172 72.1031 25.0042C71.8752 25.0915 71.755 25.3161 71.5898 25.498C71.6796 25.5927 71.9039 25.5853 72.0008 25.6744C72.087 25.9659 72.2449 26.1218 72.2988 26.4058C72.5895 26.6713 73.2105 26.43 72.8372 26.0178C72.7618 25.9287 72.6882 26.055 72.6631 25.912C72.8013 25.8285 72.9359 26.055 73.0131 26.1348C73.2984 26.8384 72.5105 26.5766 72.1085 26.8644C72.1139 26.339 71.9434 26.6954 71.6868 26.8402C71.326 26.9925 71.3278 26.8105 71.4552 26.5042C71.2973 26.5451 71.2901 26.6861 71.213 26.4764C71.1071 26.2907 71.1232 27.0519 70.9563 27.1298C70.3551 27.2152 69.6892 27.3545 69.088 27.2895C68.878 27.503 68.3127 27.6032 68.0937 27.8297C67.8802 28.0023 67.5481 28.394 67.7797 27.9207C67.7976 27.748 67.8981 27.4584 67.6953 27.3507C67.8927 27.7629 67.6899 28.1898 67.3525 28.4349C67.1533 28.9324 67.9681 28.485 67.6486 29.1663C67.7007 29.2573 67.5015 29.8996 67.5427 29.7362C67.5607 28.9788 67.4494 30.3544 67.112 30.2003C67.1587 30.4398 67.0187 30.5178 66.85 30.6236C66.8159 30.7907 66.5844 31.2158 66.3816 31.1861C66.7423 30.5419 65.127 30.7146 65.7588 29.8012C65.897 29.6768 66.1841 29.7195 66.2218 29.4782C66.1034 29.6843 65.8396 29.636 65.7014 29.8142C65.5596 30.0036 65.4752 30.2245 65.6278 30.4398C65.8485 30.7071 65.7893 31.1471 66.0747 31.3996C66.2613 31.4441 66.2218 31.6799 66.0711 31.7727C66.3187 31.6279 66.3026 32.3167 66.2003 32.0419C66.0226 32.4132 65.5937 33.0518 65.4788 33.4825C65.1988 33.5289 65.2024 33.8965 65.075 34.097C64.8955 33.9113 65.0786 33.5549 65.136 33.347C65.7839 32.4744 65.0571 33.011 65.2599 32.5914C65.0212 32.4243 65.1629 32.4132 65.1755 32.144C64.8489 32.5506 64.2656 31.6855 64.8363 31.7542C64.8937 31.7746 65.0714 31.7226 64.9117 31.7226C64.8004 31.678 64.6532 31.3346 64.5779 31.5574C64.4684 31.5722 64.6461 31.3402 64.7645 31.3457C64.7107 31.2084 64.6802 31.175 64.5474 31.2548C64.4935 31.1063 64.6371 31.045 64.7412 31.1193C64.9655 30.8074 64.4576 31.1063 64.7843 30.5865C64.8273 30.4491 65.2832 30.5326 65.0696 30.4491C64.8596 30.4268 65.1342 30.3414 65.1576 30.2635C64.935 30.3229 65.1306 30.0834 64.9045 30.1799C64.874 30.3284 64.7789 30.6069 64.6586 30.3823C64.585 30.5438 64.6784 30.6292 64.5474 30.4398C64.4038 30.7276 64.5097 30.7331 64.2243 30.6867C64.3122 30.8148 64.5994 31.1323 64.244 30.9986C64.3553 31.1545 64.3087 31.3495 64.2728 31.5277C64.2243 31.7282 64.4056 31.9714 64.463 32.1366C64.2674 32.1589 64.14 31.9064 64.0861 31.7412C64.052 31.9454 64.8937 32.8624 64.3822 32.454C64.2871 32.3946 64.0736 32.3259 63.9623 32.3092C63.8205 32.209 63.8725 31.9825 63.8007 32.2628C63.5656 31.9454 63.6805 32.0382 63.3449 32.0753C63.2911 31.8897 63.4472 31.691 63.5836 31.5889C63.6213 31.4646 63.6428 31.1081 63.5944 31.4738C63.3754 31.6168 62.9734 32.3092 63.5082 32.1366C63.8169 32.4522 64.3033 32.5784 64.6353 32.9089C64.5294 33.8463 63.8815 32.6285 63.5603 32.4652C63.501 32.5933 64.1543 33.0388 64.2548 33.2709C64.5061 33.4379 64.6604 33.4416 64.6353 33.7721C64.332 33.6533 64.5617 33.8371 64.3822 33.9057C64.3499 33.9466 63.8546 33.3655 64.0036 33.6254C64.1166 33.8686 64.463 33.9503 64.5868 34.1675C64.6317 34.5462 64.1615 34.2009 64.1471 33.9893C64.0197 34.0171 63.3575 33.696 63.3521 33.8501C63.5387 33.8835 63.7846 33.9874 63.9677 34.0505C64.2548 34.1118 64.2512 34.756 64.6622 34.42C65.3586 34.472 65.1522 35.6601 65.5757 36.1205C65.4609 36.3878 65.0929 34.6242 65.023 34.9806C64.9691 35.2516 65.1881 35.467 65.2276 35.751C65.1324 35.5895 64.9296 35.5839 64.7914 35.4874C64.7789 35.6489 64.8166 35.751 64.6281 35.6285C64.6227 35.7399 64.7412 35.7603 64.5599 35.7102C64.3266 35.9032 64.0664 36.0202 64.0107 35.5672C63.8869 36.074 64.2638 36.0481 64.6371 35.9812C64.9422 35.816 64.9242 36.1966 64.8776 36.4156C65.0176 36.4527 65.005 36.1724 65.0176 36.0926C65.2832 35.8141 65.3855 36.2597 65.2904 36.4843C65.0965 36.5827 64.953 36.8704 64.7573 36.9428C64.4792 36.8853 64.341 36.9001 64.2207 36.6644C64.1005 36.7832 64.0215 36.8723 63.8079 36.7721C63.2354 36.5196 64.0861 36.9818 64.1974 36.98C64.3499 37.0468 64.2548 37.1452 64.1812 37.2566C64.1005 37.6334 63.7433 37.4645 63.5639 37.2547C63.6733 37.6186 64.0933 37.613 64.3822 37.5128C64.7412 37.8413 63.7397 38.0251 63.4795 37.9509C63.2875 38.1124 63.2121 38.1829 63.108 37.9156C63.2462 38.4595 62.4206 38.5227 62.4206 39.1371C62.4224 39.0369 62.4224 38.8828 62.3865 38.7844C62.478 39.4768 61.5215 38.9905 61.2038 39.4676C60.9848 39.5548 60.6295 40.5406 60.6905 39.9558C60.5972 40.3122 60.7084 40.4719 60.2095 40.5703C60.1808 40.7708 59.9403 40.949 59.7483 40.8599C59.9618 41.2534 59.0142 41.2869 58.815 41.311C59.1955 41.3128 58.8976 41.9143 58.7971 41.4855C58.6768 41.621 58.6912 41.5152 58.5907 41.4075C58.5332 41.608 58.8473 41.7175 58.6499 41.8679C58.4417 41.9162 58.492 42.2615 58.2174 42.2411C58.1348 42.3914 58.3843 42.3469 58.0648 42.5251C58.1869 42.6513 57.9177 42.7367 58.0307 42.7887C58.2084 42.7627 57.8907 43.0616 57.8207 43.0504C57.8907 43.1191 57.9948 43.2157 57.8423 43.3215C57.3003 43.8116 58.142 45.7051 58.4615 46.4477C58.4309 46.5089 59.1273 47.2886 58.9047 47.3536C58.7809 47.5485 59.0986 48.137 58.9963 48.0646C58.8042 47.8381 58.8814 47.387 58.8186 47.22C58.7612 47.595 58.6194 47.3666 58.745 47.1327C58.1869 46.3809 59.2565 48.9706 59.4952 49.2861C59.7088 49.9897 59.5796 50.9012 59.2619 51.3672C59.2978 51.9965 58.6355 52.0225 58.1833 52.0448C58.1007 51.939 58.0792 51.8332 58.2012 51.7905C58.2246 51.7756 58.4112 52.0244 58.4112 51.8684C57.9841 51.5807 57.9212 51.0052 57.3792 50.853C57.2482 50.5114 56.9682 50.1178 57.2285 49.8524C56.8659 50.2088 56.8983 49.9489 56.9108 49.5609C57.0849 49.3753 56.6954 49.4421 56.7601 49.6352C56.4585 49.6259 56.3096 49.0485 56.1732 48.8332C55.9327 48.6587 56.3993 48.4656 56.4657 48.2094C56.4532 48.0739 56.2683 48.2094 56.227 48.0312C55.9291 47.8846 56.4675 48.4935 55.9668 48.3542C56.2216 45.7794 56.2486 47.1216 54.7428 45.1668C54.1416 44.801 54.111 44.84 53.7306 45.1909C53.4147 45.2429 52.5048 45.8444 52.4509 45.2911C52.5048 45.4768 52.6771 45.4341 52.5317 45.2429C52.2517 45.0294 52.0256 44.9013 52.1997 44.6377C52.0704 44.6117 52.0112 44.7101 51.9969 44.814C51.934 44.8382 51.5249 44.5579 51.4387 44.5709C50.7208 44.4149 51.419 44.4947 51.489 44.4093C51.27 44.2404 50.9864 44.3722 50.7675 44.4669C50.5288 44.4687 49.7104 44.6488 50.3601 44.4261C50.3888 44.3648 50.3906 44.1754 50.2955 44.2441C50.2416 44.2683 50.2488 44.3685 50.1824 44.2664C50.098 44.2961 50.0388 44.4558 49.967 44.5616C49.924 44.5133 49.7014 44.6915 49.6745 44.6061C49.6853 44.5504 49.7822 44.5449 49.7445 44.4817C49.5901 44.6581 49.2294 44.7268 49.0015 44.7231C49.1522 44.6395 49.443 44.6284 49.145 44.452C49.0822 44.3834 49.1307 44.0158 48.9656 44.0566C48.8651 44.983 47.9731 44.2478 47.379 44.5727C46.435 45.1853 46.3794 44.1773 45.902 44.6525C45.4407 45.4545 47.3521 44.4595 46.5912 45.0517C46.8568 45.4322 46.8837 44.9273 47.1439 44.9941C47.2929 45.538 47.0686 45.2262 46.8514 45.5399C46.322 45.7812 47.729 46.0486 47.65 46.3177C47.4939 46.3474 47.5101 46.5925 47.3647 46.4068C47.0991 46.7744 47.2767 46.0523 46.6235 46.0393C46.6791 45.8871 46.1479 45.6791 46.1335 45.7887C46.3561 45.8852 46.2735 46.1507 46.1676 46.327C46.0276 46.4198 45.9899 46.2713 45.9469 46.1525C45.482 45.8871 45.4856 46.6964 44.6403 46.0578C44.8808 46.0281 44.809 46.0411 44.6923 45.8573C44.6618 45.7144 44.6995 45.6513 44.5757 45.7757C44.206 45.7441 44.0229 45.2169 43.6604 45.3561C43.6119 45.3784 43.533 45.4601 43.5024 45.5046C43.5132 45.5622 43.6514 45.6142 43.5706 45.6606C42.8402 45.8666 42.1672 45.2169 41.4242 45.4007C41.0419 45.5158 41.2465 45.3617 41.3254 45.1333C41.137 44.9904 41.0868 45.41 41.1639 45.5195C40.8552 45.4545 39.511 46.2509 40.3168 45.7274C40.1768 45.6327 39.8663 45.8852 40.053 45.5696C40.0566 45.254 39.8825 45.5325 39.7784 45.5325C39.6025 45.3413 39.6815 45.6866 39.694 45.7515C39.9633 45.9632 39.6779 46.1414 39.4984 46.2825C39.5128 46.457 39.2956 46.5999 39.1664 46.6742C38.9528 46.8654 37.8814 47.3796 38.1739 47.1643C38.549 47.0325 37.8509 46.9823 37.7522 47.116C37.6624 47.0714 37.5924 46.8914 37.4973 46.9508C37.5852 46.9953 37.6158 47.3666 37.7898 47.3146C37.6624 47.4316 37.4417 47.5634 37.3196 47.3666C37.2909 47.4891 37.3071 47.6952 37.1617 47.749C37.1043 47.6079 37.0899 47.6989 36.9966 47.7398C36.9086 47.7138 36.7399 47.7639 36.8297 47.8883C37.0235 47.762 36.9481 47.892 36.9212 47.9959C36.783 48.3282 36.2015 48.0108 36.634 48.4508C36.4743 49.4866 35.8731 48.4526 36.0956 49.0021C36.652 49.0337 36.1387 49.5015 36.3971 49.8524C36.2679 50.2329 37.1186 50.9049 36.643 50.9179C36.521 51.0627 36.372 50.9736 36.2356 50.8567C35.6416 50.7397 35.0385 50.6153 34.5217 50.2923C34.1053 50.3257 34.1178 49.8468 33.9491 49.5757C33.8199 49.4012 33.7104 49.3047 33.7463 49.0764C33.5848 48.9334 33.8199 48.6234 33.5597 48.499C33.1738 48.3375 33.0697 47.8289 32.7251 47.6247C32.368 46.7651 31.8457 45.9687 31.1009 45.3895C30.8748 45.3821 30.6361 45.371 30.3669 45.3617C30.1282 45.2856 29.9146 45.2113 29.7208 45.4007C29.2541 45.3487 29.3116 46.0838 29.0801 46.2472C28.8557 46.6927 28.4447 46.4533 28.1378 46.2231C27.5635 45.9836 26.7631 45.616 26.7828 44.8623C26.4526 43.8877 25.3811 43.4422 24.6848 42.7683C24.464 42.1854 23.7246 42.5028 23.2508 42.423C22.7573 42.4991 21.8796 42.1148 22.0771 42.9205C21.5835 43.3716 20.058 42.9521 19.2504 43.095C17.8379 43.2082 16.4865 42.3654 15.1494 41.9886C14.6828 41.7491 13.4588 41.5672 13.317 41.2349C13.4534 41.0864 13.4032 40.962 13.2488 41.0232C12.4735 40.9564 10.4921 41.5356 10.187 41.1068C9.89983 41.0604 10.0919 40.6761 9.94469 40.4218C9.66113 40.0876 9.06169 39.3005 8.64532 39.4861C8.18587 38.6452 8.14459 39.2448 7.39081 38.7918C7.20236 38.0418 5.58173 38.6897 5.53686 38.0121C5.46507 37.7003 5.66069 37.2306 5.22996 37.1712C5.18509 36.9911 5.25509 36.8036 5.00921 36.7479C4.67898 36.4416 4.42234 36.0685 4.15492 35.6898C3.34191 35.2219 4.55515 34.459 3.48908 34.3606C3.27192 34.1582 3.12116 33.7684 3.04219 33.4769C3.07629 33.3284 2.92374 32.9924 3.19475 33.0815C3.12475 33.3228 3.43524 33.5252 3.61292 33.5809C3.47472 33.2282 2.87708 32.6434 3.59138 32.6601C3.70804 32.6749 4.58027 32.6935 4.20517 32.6044C4.04006 32.6378 3.81392 32.6174 3.66496 32.5394C3.57164 32.7102 3.30063 32.5506 3.18218 32.5042C2.74068 32.8754 3.50523 33.3544 2.46429 32.649C2.41584 32.803 2.31892 32.7121 2.41584 32.5821C2.48942 32.3519 2.33866 32.3631 2.53788 32.5394C2.46609 32.3334 2.26867 32.2257 2.21124 32.0103C1.67641 31.6985 1.3749 31.1118 1.27978 30.5029C1.39105 30.2486 1.31388 29.9182 1.19363 29.688C0.985444 29.3093 0.326781 28.9751 0.606758 28.4553C0.651626 28.3532 0.665984 28.1379 0.746746 28.2901C0.78623 27.8705 1.03031 27.2264 0.883145 26.7214C0.795204 26.5079 0.692904 26.3501 0.757514 26.0995C0.6265 25.9529 0.454206 25.6428 0.479333 25.4164C0.62291 25.0265 0.163461 24.6738 0.434464 24.3211C0.495485 24.2858 0.52779 23.7103 0.612142 23.6992C0.6265 23.7196 0.865198 23.5971 0.728799 23.5785C0.901092 23.4393 0.764693 22.2493 0.976471 21.826C0.879556 21.2468 1.10569 20.3186 1.13441 19.7469C1.07697 19.461 1.13261 18.9041 1.068 18.6386C1.02672 18.5272 1.10928 18.555 1.15235 18.6312C1.41977 18.7054 1.52565 18.5291 1.74641 18.581C1.9528 18.8001 2.20047 18.7036 1.82896 18.5606C1.50412 18.2395 0.805972 18.7611 0.969292 18.0612C1.0698 17.6862 0.91186 18.0204 1.10569 18.1689C1.22235 17.9517 1.21517 17.6324 0.938781 17.5897C0.859814 17.3669 1.03031 17.2537 1.24388 17.1813C1.18825 17.1757 0.992623 17.1423 0.978265 17.0569C0.883145 17.0124 0.868787 17.1163 0.849045 17.198C0.75572 16.927 0.784435 16.6002 0.62291 16.3533C0.683931 15.8094 0.0862886 15.4493 0.100646 14.935C0.00732084 14.0996 0.597784 14.7977 1.06621 14.9016C1.58129 14.9907 2.09279 14.9276 2.48763 15.0761C2.8035 14.8682 2.60608 15.1578 2.79273 15.3527C2.82683 15.7556 2.23098 15.7964 2.18073 16.3868C2.18432 16.5538 2.39968 16.3812 2.46968 16.3459C2.4625 16.2902 2.3279 16.3886 2.27764 16.3608C2.28482 16.3273 2.28123 16.2401 2.30277 16.2104C2.45532 15.9579 2.71376 15.7686 2.88964 15.5347C2.96143 15.2915 2.98297 15.3267 3.01886 15.5718C2.633 16.0749 3.11757 16.073 2.89503 16.5947C2.8376 16.5928 2.79632 16.5483 2.75683 16.5167C2.71556 16.5148 2.7012 16.745 2.65633 16.6875C2.71914 16.3515 2.36917 16.5594 2.38353 16.7877C2.29738 16.888 2.39789 16.8453 2.48224 16.8657C3.11219 16.9752 2.71914 16.6708 3.1409 16.526C3.3473 16.2605 3.11219 15.8614 3.1768 15.5644C3.39934 15.2599 3.37781 15.1337 3.14629 14.8719C3.26115 15.1559 3.01886 15.0241 2.99553 14.8422C3.17321 14.638 3.19654 14.6603 2.97938 14.4357C2.90759 14.3781 2.7694 14.4134 2.82503 14.2834C2.90759 14.2574 3.1068 14.328 3.01348 14.1591C3.06553 14.0625 2.98835 13.81 2.95066 13.7284C2.86452 13.81 2.74965 13.6894 2.73709 13.5836C2.20047 12.9468 4.7741 13.4759 5.05587 13.3107C7.12339 13.3107 9.23757 13.3107 11.3051 13.3107C17.549 13.3107 23.809 13.3107 30.0528 13.3107C32.3106 13.3107 34.6114 13.3107 36.8692 13.3107C37.4865 13.1306 39.6061 13.7562 39.4607 12.9023C39.3979 12.5922 39.6169 12.4716 39.8663 12.7036C39.8269 13.0545 39.9902 13.4258 40.105 13.7358C40.3832 13.9326 40.9001 13.8954 41.2016 14.0588C41.2519 14.2463 41.4457 14.2129 41.5839 14.1943C41.8764 14.0013 42.2264 13.9548 42.553 14.1349C42.9694 14.2574 42.9802 14.5508 43.2027 14.6956C43.5294 14.2964 43.9529 15.039 44.3083 15.1132C44.6295 15.2246 45.0854 14.534 45.2685 14.974C45.5107 15.0613 45.9397 15.0297 46.2089 14.9982C46.313 15.1727 46.4243 15.284 46.6306 15.1949C48.1992 15.3212 47.8977 13.9734 49.6691 15.297C50.8321 15.9468 52.0058 16.6318 53.1581 17.3001C53.2245 17.5786 53.3429 18.0761 53.657 18.1151C54.4036 17.6231 53.9962 18.414 54.3551 18.8112C54.5938 18.8317 54.9205 18.6163 55.0317 18.9765C54.6836 19.3849 55.1484 19.4276 55.4176 19.6392C56.3347 19.9733 56.3903 20.6565 56.498 21.555C56.6847 22.5129 56.9306 23.4189 56.4334 24.3044C56.4316 24.9634 55.9381 25.2827 55.5109 25.6336C55.2902 26.1069 55.6832 26.4578 56.0691 26.6212C56.8785 26.6509 57.4815 25.7227 58.2838 25.6391C59.2404 25.4702 60.3674 25.136 61.0997 24.4919C60.9705 24.3099 60.8502 24.1076 60.9077 23.8477C60.8 23.6416 60.6905 23.4708 60.983 23.4096C61.8642 23.0104 62.9465 23.326 63.8905 23.2295C64.3176 22.435 65.8755 20.8217 66.7082 20.7809Z" fill="white"/>
</svg>
